<svg xmlns="http://www.w3.org/2000/svg" width="68.291" height="52.846"><g style="fill-opacity:.25" fill="#fff" fill-rule="evenodd"><path d="M14.99 18.125c-.004.014-5.346 7.283-6.837 9.329a1.353 1.353 0 0 1-1.534.48 1.353 1.353 0 0 1-.912-1.323c.083-2.533.354-11.56.354-11.56l-.736-.254a1.5 1.5 0 0 1 .977-2.836l10.4 3.581a1.5 1.5 0 0 1-.976 2.837Zm2.187-3.477-10.7-3.684a6 6 0 1 1 10.7 3.684Zm-4.225-3.57a.5.5 0 1 1-.636.31.5.5 0 0 1 .636-.31Zm-3.53-2.802a.75.75 0 1 1-.954.465.75.75 0 0 1 .953-.465Zm6.902 1.347a1 1 0 1 1-1.271.62 1 1 0 0 1 1.27-.62Zm-4.14-.925a.5.5 0 1 1-.635.31.5.5 0 0 1 .635-.31Zm2.942-1.63a.75.75 0 1 1-.954.464.75.75 0 0 1 .954-.465Zm-2.6-.896a.5.5 0 1 1-.636.31.5.5 0 0 1 .636-.31ZM47.659 5.218a5.059 5.059 0 1 1-6.162 6.162 6.327 6.327 0 0 0 6.162-6.162ZM45.764 11.9a.632.632 0 1 1-.632.632.633.633 0 0 1 .632-.632Zm2.845-1.155a.948.948 0 1 1-.948.948.949.949 0 0 1 .949-.944ZM41.371 0a5.058 5.058 0 1 1-5.091 5.058 1.992 1.992 0 0 0 2.529-2.529A2.152 2.152 0 0 0 41.371 0Zm7.555 8.22a.632.632 0 1 1-.632.632.633.633 0 0 1 .632-.632Zm-6.955-1.054a.632.632 0 1 1-.632.632.633.633 0 0 1 .632-.632ZM39.089 5.9a.843.843 0 1 1-.843.843.844.844 0 0 1 .843-.843Zm4.779-1.263a.843.843 0 1 1-.843.843.844.844 0 0 1 .843-.843Zm-2.53-.422a.421.421 0 1 1-.422.421.422.422 0 0 1 .422-.421Zm-4.426-1.686a.632.632 0 1 1-.632.632.633.633 0 0 1 .632-.632Zm6.323-.422a.632.632 0 1 1-.632.632.633.633 0 0 1 .632-.632ZM39.441.422a.632.632 0 1 1-.632.632.633.633 0 0 1 .632-.632Zm-2.107.21a.421.421 0 1 1-.422.422.422.422 0 0 1 .422-.422ZM22.371 30.557l1.737-1.808.627.545-1.482 1.516 2.237.641c-.141.491.333 1.032.796 1.165l-.21.736-.533-.152-3.666 8.745-5.322-1.526 1.52-9.365-.522-.15.211-.736c.463.133 1.171-.066 1.313-.56l3.295.945Zm-3.22.806-1.366 8.256 3.479.997 3.21-7.727-5.323-1.526Zm.393 6.168a.416.416 0 1 1-.514.285.416.416 0 0 1 .514-.285Zm1.835-.917a.554.554 0 1 1-.685.38.554.554 0 0 1 .685-.38Zm-1.13-2.054a.831.831 0 1 1-1.027.57.832.832 0 0 1 1.028-.57ZM30.068 10.754l-2.846 1.71-2.342-1.794 4.704-2.826Zm-3.527-.281-.443.266 1.171.897 2.046-1.23-.242-1.454-.443.265.158 1.297-.615-1.022-.36.216.387 1.16-.843-.885-.36.216.614 1.023Zm-1.358-3.96-.188-.313.588-.354.186.31a2.881 2.881 0 0 1 2.316.009.942.942 0 0 1 .82 1.686l-3.7 2.223a.942.942 0 0 1-1.114-1.505 2.829 2.829 0 0 1 1.091-2.056Zm.636.392-.039.023a2.207 2.207 0 0 0-1.01 2.007 2.718 2.718 0 0 0-.183.117.257.257 0 0 0 .284.428l3.686-2.214a.257.257 0 0 0-.277-.434l-.172.103a2.225 2.225 0 0 0-2.29-.03Zm-.368 1.22a.257.257 0 1 1-.088.352.257.257 0 0 1 .088-.353Zm1.617-.972a.257.257 0 1 1-.088.353.257.257 0 0 1 .088-.353Zm-1.073.045a.343.343 0 1 1-.117.47.343.343 0 0 1 .117-.469Zm-1.042-1.176c-.67.155-1.004-.765-.536-1.476.273.402.85.112 1.102.532a.59.59 0 0 1-.052.635.61.61 0 0 0-.574-.374.6.6 0 0 0 .06.683ZM51.456 19.175A16.836 16.836 0 1 1 34.62 36.011a16.844 16.844 0 0 1 16.836-16.836m12.817 22.546c-1.034-.251-1.253-.088-1.688.617a6.03 6.03 0 0 1-1.919 2.393c-1.326.811-2.514.3-3.869-.171-.889-.3-1.089-.262-1.566.581a6.722 6.722 0 0 1-1.93 2.691 3.33 3.33 0 0 1-3.947-.152c-1.33-1.084-1.785-3.656-2.882-3.319-1.065.327-2.516 1.658-4.019.581a7.169 7.169 0 0 1-1.8-2.274c-.382-.61-.63-.874-1.832-.553a14.033 14.033 0 0 0 25.451-.394m.881-2.668a14.03 14.03 0 1 0-27.3.419l.035-.01c3.649-.9 4.575.933 5.3 2.326.6 1.142.759.766 1.719.189a3.3 3.3 0 0 1 1.428-.445 3.6 3.6 0 0 1 3.73 2.172 15.2 15.2 0 0 0 .9 1.639.527.527 0 0 0 .871.058c.769-.85 1.358-3.735 3.8-3.792a7.74 7.74 0 0 1 2.9.595c.713.234.714.23 1.131-.439.8-1.348 1.355-2.447 2.932-2.838a5.071 5.071 0 0 1 2.551.126M51.45 30.4a5.612 5.612 0 1 1-5.612 5.612A5.614 5.614 0 0 1 51.45 30.4m0 2.806a2.806 2.806 0 1 1-2.806 2.806 2.807 2.807 0 0 1 2.806-2.806"/></g></svg>