<?xml version="1.0" encoding="utf-8"?>
<!-- Generator: Adobe Illustrator 16.0.0, SVG Export Plug-In . SVG Version: 6.00 Build 0)  -->
<!DOCTYPE svg PUBLIC "-//W3C//DTD SVG 1.1//EN" "http://www.w3.org/Graphics/SVG/1.1/DTD/svg11.dtd">
<svg version="1.1" id="Calque_1" xmlns="http://www.w3.org/2000/svg" xmlns:xlink="http://www.w3.org/1999/xlink" x="0px" y="0px"
	 width="286px" height="125px" viewBox="0 0 286 125" enable-background="new 0 0 286 125" xml:space="preserve">
<g>
	<path fill="#FFE900" d="M82.422,84.532c-4.426,2.851-9.341,4.819-14.262,5.76c-18.468,3.527-36.79-7.567-40.771-27.436
		c-2.215-11.054,0.775-20.521,6.907-27.826c-5.079,2.655-9.593,6.289-13.027,10.537c-7.246,8.968-9.676,20.669-2.427,31.672
		c0.789,1.197,1.6,2.372,2.427,3.528c2.804,3.911,5.822,7.558,9.02,10.771c8.022,8.064,17.16,13.41,26.786,13.41
		c3.164,0,6.377-0.578,9.624-1.826c5.97-2.291,11.383-6.414,15.654-11.584"/>
	<path fill="#57C9E8" d="M82.396,24.816c-8.16-4.782-18.398-6.396-28.476-2.834c-3.064,1.083-5.976,2.426-8.685,4.001
		c-4.233,2.46-7.958,5.497-10.939,9.047c1.465-0.765,2.977-1.452,4.524-2.047c4.835-1.857,9.923-2.807,14.977-2.807
		c10.567,0,20.988,4.156,28.645,12.883"/>
	<path fill="#65B32E" d="M82.48,43.103c-7.66-8.757-18.099-12.928-28.683-12.928c-5.055,0-10.142,0.951-14.977,2.809
		c-1.547,0.594-3.058,1.281-4.524,2.047c-6.132,7.305-9.121,16.772-6.907,27.826c3.98,19.867,22.303,30.964,40.771,27.435
		c4.934-0.944,9.862-2.92,14.297-5.782"/>
</g>
<g>
	<defs>
		<path id="SVGID_1_" d="M38.82,32.983c-1.548,0.594-3.06,1.282-4.526,2.047c-6.13,7.305-9.119,16.771-6.905,27.826
			c3.979,19.868,22.302,30.963,40.77,27.436c4.933-0.943,9.862-2.919,14.296-5.783l0.024-41.407
			C74.82,34.345,64.38,30.174,53.797,30.174C48.742,30.174,43.654,31.126,38.82,32.983"/>
	</defs>
	<clipPath id="SVGID_2_">
		<use xlink:href="#SVGID_1_"  overflow="visible"/>
	</clipPath>
	<path clip-path="url(#SVGID_2_)" fill="#FFFFFF" d="M82.503,44.48h-0.284L71.622,58.829L66.992,44.48h-8.729l6.467,19.923
		c0,0,0.753,2.434-1.021,5.064l-8.201,11.085h10.167l16.811-22.743"/>
	<path clip-path="url(#SVGID_2_)" fill="#FFFFFF" d="M26.467,62.516c0,9.956,8.08,18.035,18.035,18.035h4.456l6.119-8.304H44.502
		c-4.978,0-9.662-4.754-9.662-9.731c0-4.978,4.684-9.681,9.662-9.681h10.862l-2.699-8.354h-8.163
		C34.547,44.481,26.467,52.56,26.467,62.516"/>
</g>
<g>
	<rect x="82.234" y="20.053" fill="#3E4543" width="0.425" height="84.864"/>
	<path fill="#3E4543" d="M101.008,74.748c5.936,0,9.904-3.599,9.904-10.527V50.602h-2.679v13.822c0,5.196-2.781,7.845-7.157,7.845
		c-4.51,0-7.258-2.887-7.258-8.015V50.602h-2.679v13.822C91.139,71.149,95.141,74.748,101.008,74.748 M113.946,74.374h2.611V54.882
		l15.331,19.492h2.137V50.602h-2.612v19.052l-14.957-19.052h-2.51V74.374z M137.244,74.374h2.68V50.602h-2.68V74.374z
		 M153.015,74.544h2.374l10.208-23.942h-2.883l-8.479,20.478l-8.445-20.478h-2.984L153.015,74.544z M167.396,74.374h17.331v-2.445
		h-14.652v-8.32h12.956v-2.445h-12.956v-8.116h14.483v-2.446h-17.162V74.374z M187.235,74.374h2.68v-9.237h6.783l6.885,9.237h3.29
		l-7.292-9.712c3.731-0.679,6.444-2.989,6.444-6.928v-0.068c0-1.868-0.679-3.532-1.832-4.687c-1.492-1.494-3.832-2.377-6.749-2.377
		h-10.209V74.374z M189.915,62.726v-9.645h7.326c3.832,0,6.071,1.766,6.071,4.687v0.068c0,3.056-2.544,4.89-6.106,4.89H189.915z
		 M217.438,74.714c4.714,0,8.104-2.649,8.104-6.724v-0.068c0-3.634-2.44-5.569-7.731-6.724c-5.225-1.12-6.445-2.377-6.445-4.619
		v-0.067c0-2.14,1.967-3.838,5.053-3.838c2.443,0,4.647,0.781,6.853,2.581l1.56-2.071c-2.408-1.936-4.884-2.921-8.343-2.921
		c-4.511,0-7.801,2.751-7.801,6.486v0.069c0,3.905,2.509,5.67,7.97,6.859c4.986,1.053,6.173,2.31,6.173,4.517v0.067
		c0,2.344-2.103,4.042-5.291,4.042c-3.29,0-5.664-1.121-8.14-3.363l-1.662,1.971C210.586,73.457,213.672,74.714,217.438,74.714
		 M228.358,74.374h2.68V50.602h-2.68V74.374z M241.38,74.374h2.713V53.081h7.972v-2.479H233.41v2.479h7.97V74.374z M261.729,48.497
		h2.171l3.898-3.158l-2.521,0.035L261.729,48.497z M254.199,74.374h17.331v-2.445h-14.651v-8.32h12.956v-2.445h-12.956v-8.116
		h14.482v-2.446h-17.162V74.374z"/>
	<path fill="#868A88" d="M95.31,44.422c1.518,0,2.474-0.586,3.346-1.47l-0.621-0.61c-0.801,0.765-1.553,1.207-2.701,1.207
		c-1.84,0-3.238-1.518-3.238-3.454v-0.024c0-1.924,1.386-3.429,3.238-3.429c1.136,0,1.924,0.477,2.629,1.146l0.646-0.692
		c-0.837-0.789-1.745-1.327-3.263-1.327c-2.461,0-4.23,1.96-4.23,4.326v0.024C91.116,42.521,92.896,44.422,95.31,44.422
		 M99.589,44.278h6.107v-0.86h-5.163V40.49h4.565v-0.861h-4.565v-2.856h5.103v-0.86h-6.047V44.278z M106.879,44.278h0.944v-3.251
		h2.39l2.426,3.251h1.159l-2.569-3.418c1.314-0.239,2.271-1.052,2.271-2.438v-0.024c0-0.658-0.239-1.242-0.646-1.649
		c-0.525-0.526-1.35-0.836-2.378-0.836h-3.597V44.278z M107.823,40.179v-3.394h2.581c1.351,0,2.139,0.621,2.139,1.649v0.024
		c0,1.076-0.896,1.721-2.151,1.721H107.823z M118.686,44.422c1.41,0,2.581-0.586,3.358-1.279v-3.335h-3.454v0.849h2.546v2.08
		c-0.574,0.466-1.458,0.836-2.414,0.836c-2.032,0-3.311-1.481-3.311-3.478v-0.024c0-1.864,1.327-3.429,3.179-3.429
		c1.183,0,1.901,0.394,2.546,0.955l0.609-0.717c-0.836-0.705-1.708-1.111-3.119-1.111c-2.509,0-4.195,2.032-4.195,4.326v0.024
		C114.431,42.509,116.057,44.422,118.686,44.422 M133.804,44.278h0.944v-2.952h2.031c1.781,0,3.287-0.932,3.287-2.737v-0.024
		c0-1.649-1.243-2.652-3.131-2.652h-3.131V44.278z M134.748,40.466v-3.681h2.115c1.35,0,2.247,0.621,2.247,1.817v0.023
		c0,1.099-0.909,1.841-2.295,1.841H134.748z M139.516,44.278h0.968l0.992-2.211h4.554l0.979,2.211h1.016l-3.813-8.426h-0.883
		L139.516,44.278z M141.846,41.207l1.913-4.255l1.9,4.255H141.846z M148.958,44.278h0.943v-3.251h2.39l2.426,3.251h1.16l-2.57-3.418
		c1.315-0.239,2.271-1.052,2.271-2.438v-0.024c0-0.658-0.239-1.242-0.645-1.649c-0.526-0.526-1.35-0.836-2.378-0.836h-3.597V44.278z
		 M149.901,40.179v-3.394h2.582c1.35,0,2.139,0.621,2.139,1.649v0.024c0,1.076-0.896,1.721-2.151,1.721H149.901z M156.964,44.278
		h0.944v-8.365h-0.944V44.278z M162.51,44.398c1.661,0,2.856-0.932,2.856-2.367v-0.024c0-1.278-0.861-1.959-2.725-2.366
		c-1.841-0.394-2.271-0.837-2.271-1.625v-0.024c0-0.753,0.693-1.35,1.78-1.35c0.861,0,1.638,0.274,2.415,0.908l0.549-0.729
		c-0.848-0.682-1.72-1.028-2.94-1.028c-1.588,0-2.748,0.968-2.748,2.282v0.024c0,1.375,0.885,1.996,2.809,2.415
		c1.757,0.37,2.175,0.812,2.175,1.589v0.024c0,0.825-0.739,1.422-1.864,1.422c-1.158,0-1.996-0.394-2.867-1.183l-0.586,0.693
		C160.096,43.955,161.184,44.398,162.51,44.398"/>
	<path fill="#868A88" d="M125.063,41.727l-1.911,2.583h1.13l6.213-8.405h-1.119l-3.158,4.143l-1.365-4.143h-1.059l1.507,4.642
		C125.301,40.546,125.476,41.114,125.063,41.727"/>
</g>
</svg>
