<?xml version="1.0" encoding="utf-8"?>
<!-- Generator: Adobe Illustrator 16.0.0, SVG Export Plug-In . SVG Version: 6.00 Build 0)  -->
<!DOCTYPE svg PUBLIC "-//W3C//DTD SVG 1.1//EN" "http://www.w3.org/Graphics/SVG/1.1/DTD/svg11.dtd">
<svg version="1.1" id="Calque_1" xmlns="http://www.w3.org/2000/svg" xmlns:xlink="http://www.w3.org/1999/xlink" x="0px" y="0px"
	 width="286px" height="125px" viewBox="0 0 286 125" enable-background="new 0 0 286 125" xml:space="preserve">
<g>
	<g>
		<path fill="#FFFFFF" d="M101.082,74.808c5.937,0,9.904-3.6,9.904-10.527V50.661h-2.679v13.822c0,5.195-2.781,7.845-7.157,7.845
			c-4.51,0-7.258-2.888-7.258-8.015V50.661h-2.68v13.822C91.212,71.208,95.214,74.808,101.082,74.808 M114.02,74.433h2.61V54.941
			l15.331,19.492h2.138V50.661h-2.612v19.052L116.53,50.661h-2.51V74.433z M137.318,74.433h2.68V50.661h-2.68V74.433z
			 M153.09,74.603h2.373l10.209-23.941h-2.883l-8.479,20.479l-8.445-20.479h-2.985L153.09,74.603z M167.469,74.433h17.332v-2.445
			h-14.652v-8.319h12.955v-2.445h-12.955v-8.116h14.482v-2.446h-17.162V74.433z M187.309,74.433h2.68v-9.236h6.783l6.885,9.236
			h3.291l-7.293-9.711c3.732-0.68,6.445-2.99,6.445-6.929v-0.068c0-1.868-0.68-3.532-1.832-4.687
			c-1.492-1.494-3.832-2.377-6.75-2.377h-10.209V74.433z M189.988,62.785V53.14h7.326c3.832,0,6.072,1.766,6.072,4.687v0.068
			c0,3.056-2.545,4.89-6.107,4.89H189.988z M217.512,74.772c4.715,0,8.105-2.648,8.105-6.724v-0.067
			c0-3.635-2.441-5.569-7.732-6.725c-5.225-1.12-6.445-2.377-6.445-4.619v-0.067c0-2.14,1.967-3.838,5.053-3.838
			c2.443,0,4.648,0.781,6.854,2.581l1.559-2.071c-2.408-1.936-4.883-2.921-8.342-2.921c-4.512,0-7.801,2.751-7.801,6.486v0.069
			c0,3.905,2.508,5.67,7.969,6.859c4.986,1.053,6.174,2.31,6.174,4.517v0.066c0,2.345-2.104,4.043-5.291,4.043
			c-3.291,0-5.664-1.121-8.141-3.363l-1.662,1.971C210.66,73.517,213.746,74.772,217.512,74.772 M228.432,74.433h2.68V50.661h-2.68
			V74.433z M241.453,74.433h2.713V53.14h7.973v-2.479h-18.654v2.479h7.969V74.433z M261.803,48.556h2.172l3.898-3.158l-2.521,0.035
			L261.803,48.556z M254.273,74.433h17.33v-2.445h-14.65v-8.319h12.955v-2.445h-12.955v-8.116h14.482v-2.446h-17.162V74.433z"/>
		<path fill="#FFFFFF" d="M95.383,44.481c1.519,0,2.475-0.586,3.347-1.47l-0.621-0.61c-0.801,0.765-1.553,1.207-2.701,1.207
			c-1.84,0-3.238-1.518-3.238-3.454V40.13c0-1.924,1.387-3.429,3.238-3.429c1.136,0,1.924,0.477,2.629,1.146l0.646-0.692
			c-0.837-0.789-1.745-1.327-3.264-1.327c-2.461,0-4.229,1.96-4.229,4.326v0.024C91.19,42.58,92.97,44.481,95.383,44.481
			 M99.663,44.337h6.107v-0.86h-5.163v-2.928h4.564v-0.861h-4.564v-2.856h5.103v-0.86h-6.047V44.337z M106.953,44.337h0.944v-3.251
			h2.39l2.426,3.251h1.159l-2.568-3.418c1.313-0.239,2.271-1.052,2.271-2.438v-0.024c0-0.658-0.239-1.242-0.646-1.649
			c-0.525-0.526-1.351-0.836-2.379-0.836h-3.597V44.337z M107.897,40.238v-3.394h2.581c1.351,0,2.139,0.621,2.139,1.649v0.024
			c0,1.076-0.896,1.721-2.151,1.721H107.897z M118.759,44.481c1.41,0,2.581-0.586,3.358-1.279v-3.335h-3.454v0.849h2.546v2.08
			c-0.573,0.466-1.458,0.836-2.414,0.836c-2.031,0-3.311-1.481-3.311-3.478V40.13c0-1.864,1.327-3.429,3.179-3.429
			c1.184,0,1.901,0.394,2.546,0.955l0.609-0.717c-0.836-0.705-1.708-1.111-3.119-1.111c-2.509,0-4.195,2.032-4.195,4.326v0.024
			C114.504,42.568,116.13,44.481,118.759,44.481 M133.878,44.337h0.943v-2.952h2.031c1.781,0,3.287-0.932,3.287-2.737v-0.024
			c0-1.649-1.243-2.652-3.131-2.652h-3.131V44.337z M134.822,40.525v-3.681h2.115c1.35,0,2.247,0.621,2.247,1.817v0.023
			c0,1.099-0.909,1.841-2.295,1.841H134.822z M139.589,44.337h0.969l0.992-2.211h4.553l0.98,2.211h1.016l-3.813-8.426h-0.884
			L139.589,44.337z M141.919,41.266l1.915-4.255l1.898,4.255H141.919z M149.031,44.337h0.943v-3.251h2.391l2.426,3.251h1.16
			l-2.57-3.418c1.314-0.239,2.271-1.052,2.271-2.438v-0.024c0-0.658-0.238-1.242-0.645-1.649c-0.527-0.526-1.352-0.836-2.379-0.836
			h-3.598V44.337z M149.975,40.238v-3.394h2.582c1.35,0,2.139,0.621,2.139,1.649v0.024c0,1.076-0.895,1.721-2.15,1.721H149.975z
			 M157.039,44.337h0.943v-8.365h-0.943V44.337z M162.584,44.457c1.66,0,2.855-0.932,2.855-2.367v-0.024
			c0-1.278-0.861-1.959-2.725-2.366c-1.84-0.394-2.271-0.837-2.271-1.625v-0.024c0-0.753,0.693-1.35,1.781-1.35
			c0.861,0,1.637,0.274,2.414,0.908l0.549-0.729c-0.848-0.682-1.719-1.028-2.939-1.028c-1.588,0-2.748,0.968-2.748,2.282v0.024
			c0,1.375,0.885,1.996,2.809,2.415c1.756,0.37,2.174,0.812,2.174,1.589v0.024c0,0.825-0.738,1.422-1.863,1.422
			c-1.158,0-1.996-0.394-2.867-1.183l-0.586,0.693C160.17,44.014,161.258,44.457,162.584,44.457"/>
		<path fill="#FFFFFF" d="M125.136,41.786l-1.911,2.583h1.131l6.213-8.405h-1.119l-3.158,4.143l-1.365-4.143h-1.059l1.507,4.642
			C125.375,40.605,125.549,41.173,125.136,41.786"/>
		<rect x="82.308" y="20.112" fill="#FFFFFF" width="0.425" height="84.863"/>
	</g>
	<g>
		<defs>
			<path id="SVGID_1_" d="M21.194,45.54c-4.2,5.198-6.782,11.315-6.798,17.681v0.125c0.011,4.577,1.351,9.282,4.372,13.866
				c0.788,1.197,1.598,2.371,2.426,3.527c2.805,3.911,5.822,7.559,9.02,10.771c8.023,8.063,17.16,13.408,26.787,13.408
				c3.163,0,6.376-0.576,9.623-1.824c5.971-2.293,11.384-6.416,15.654-11.584l0.136-6.246c-4.427,2.851-9.335,4.785-14.25,5.75
				c-18.251,3.584-37.56-8.697-41.297-28.613c-3.333-17.77,6.964-27.512,6.964-27.512C29.081,37.891,24.628,41.292,21.194,45.54"/>
		</defs>
		<clipPath id="SVGID_2_">
			<use xlink:href="#SVGID_1_"  overflow="visible"/>
		</clipPath>
		
			<line clip-path="url(#SVGID_2_)" fill="none" stroke="#FFFFFF" stroke-width="0.55" x1="-2.26" y1="25.66" x2="31.242" y2="118.464"/>
		
			<line clip-path="url(#SVGID_2_)" fill="none" stroke="#FFFFFF" stroke-width="0.55" x1="-0.588" y1="25.66" x2="32.914" y2="118.464"/>
		
			<line clip-path="url(#SVGID_2_)" fill="none" stroke="#FFFFFF" stroke-width="0.55" x1="1.083" y1="25.66" x2="34.585" y2="118.464"/>
		
			<line clip-path="url(#SVGID_2_)" fill="none" stroke="#FFFFFF" stroke-width="0.55" x1="2.755" y1="25.66" x2="36.257" y2="118.464"/>
		
			<line clip-path="url(#SVGID_2_)" fill="none" stroke="#FFFFFF" stroke-width="0.55" x1="4.428" y1="25.66" x2="37.93" y2="118.464"/>
		
			<line clip-path="url(#SVGID_2_)" fill="none" stroke="#FFFFFF" stroke-width="0.55" x1="6.1" y1="25.661" x2="39.602" y2="118.464"/>
		
			<line clip-path="url(#SVGID_2_)" fill="none" stroke="#FFFFFF" stroke-width="0.55" x1="7.772" y1="25.66" x2="41.274" y2="118.464"/>
		
			<line clip-path="url(#SVGID_2_)" fill="none" stroke="#FFFFFF" stroke-width="0.55" x1="9.444" y1="25.66" x2="42.946" y2="118.464"/>
		
			<line clip-path="url(#SVGID_2_)" fill="none" stroke="#FFFFFF" stroke-width="0.55" x1="11.115" y1="25.66" x2="44.617" y2="118.464"/>
		
			<line clip-path="url(#SVGID_2_)" fill="none" stroke="#FFFFFF" stroke-width="0.55" x1="12.788" y1="25.66" x2="46.29" y2="118.464"/>
		
			<line clip-path="url(#SVGID_2_)" fill="none" stroke="#FFFFFF" stroke-width="0.55" x1="14.458" y1="25.66" x2="47.96" y2="118.464"/>
		
			<line clip-path="url(#SVGID_2_)" fill="none" stroke="#FFFFFF" stroke-width="0.55" x1="16.131" y1="25.66" x2="49.633" y2="118.464"/>
		
			<line clip-path="url(#SVGID_2_)" fill="none" stroke="#FFFFFF" stroke-width="0.55" x1="17.803" y1="25.66" x2="51.305" y2="118.464"/>
		
			<line clip-path="url(#SVGID_2_)" fill="none" stroke="#FFFFFF" stroke-width="0.55" x1="19.475" y1="25.66" x2="52.977" y2="118.464"/>
		
			<line clip-path="url(#SVGID_2_)" fill="none" stroke="#FFFFFF" stroke-width="0.55" x1="21.147" y1="25.66" x2="54.649" y2="118.464"/>
		
			<line clip-path="url(#SVGID_2_)" fill="none" stroke="#FFFFFF" stroke-width="0.55" x1="22.819" y1="25.66" x2="56.321" y2="118.464"/>
		
			<line clip-path="url(#SVGID_2_)" fill="none" stroke="#FFFFFF" stroke-width="0.55" x1="24.491" y1="25.66" x2="57.993" y2="118.464"/>
		
			<line clip-path="url(#SVGID_2_)" fill="none" stroke="#FFFFFF" stroke-width="0.55" x1="26.162" y1="25.66" x2="59.664" y2="118.464"/>
		
			<line clip-path="url(#SVGID_2_)" fill="none" stroke="#FFFFFF" stroke-width="0.55" x1="27.834" y1="25.66" x2="61.336" y2="118.464"/>
		
			<line clip-path="url(#SVGID_2_)" fill="none" stroke="#FFFFFF" stroke-width="0.55" x1="29.506" y1="25.66" x2="63.008" y2="118.464"/>
		
			<line clip-path="url(#SVGID_2_)" fill="none" stroke="#FFFFFF" stroke-width="0.55" x1="31.178" y1="25.66" x2="64.68" y2="118.464"/>
		
			<line clip-path="url(#SVGID_2_)" fill="none" stroke="#FFFFFF" stroke-width="0.55" x1="32.85" y1="25.661" x2="66.352" y2="118.464"/>
		
			<line clip-path="url(#SVGID_2_)" fill="none" stroke="#FFFFFF" stroke-width="0.55" x1="34.522" y1="25.66" x2="68.024" y2="118.464"/>
		
			<line clip-path="url(#SVGID_2_)" fill="none" stroke="#FFFFFF" stroke-width="0.55" x1="36.194" y1="25.66" x2="69.696" y2="118.464"/>
		
			<line clip-path="url(#SVGID_2_)" fill="none" stroke="#FFFFFF" stroke-width="0.55" x1="37.866" y1="25.66" x2="71.368" y2="118.464"/>
		
			<line clip-path="url(#SVGID_2_)" fill="none" stroke="#FFFFFF" stroke-width="0.55" x1="39.538" y1="25.66" x2="73.04" y2="118.464"/>
		
			<line clip-path="url(#SVGID_2_)" fill="none" stroke="#FFFFFF" stroke-width="0.55" x1="41.209" y1="25.661" x2="74.711" y2="118.464"/>
		
			<line clip-path="url(#SVGID_2_)" fill="none" stroke="#FFFFFF" stroke-width="0.55" x1="42.881" y1="25.66" x2="76.383" y2="118.464"/>
		
			<line clip-path="url(#SVGID_2_)" fill="none" stroke="#FFFFFF" stroke-width="0.55" x1="44.553" y1="25.66" x2="78.055" y2="118.464"/>
		
			<line clip-path="url(#SVGID_2_)" fill="none" stroke="#FFFFFF" stroke-width="0.55" x1="46.225" y1="25.66" x2="79.727" y2="118.464"/>
		
			<line clip-path="url(#SVGID_2_)" fill="none" stroke="#FFFFFF" stroke-width="0.55" x1="47.897" y1="25.66" x2="81.399" y2="118.464"/>
		
			<line clip-path="url(#SVGID_2_)" fill="none" stroke="#FFFFFF" stroke-width="0.55" x1="49.569" y1="25.66" x2="83.071" y2="118.464"/>
		
			<line clip-path="url(#SVGID_2_)" fill="none" stroke="#FFFFFF" stroke-width="0.55" x1="51.241" y1="25.66" x2="84.743" y2="118.464"/>
		
			<line clip-path="url(#SVGID_2_)" fill="none" stroke="#FFFFFF" stroke-width="0.55" x1="52.913" y1="25.66" x2="86.415" y2="118.464"/>
		
			<line clip-path="url(#SVGID_2_)" fill="none" stroke="#FFFFFF" stroke-width="0.55" x1="54.584" y1="25.66" x2="88.086" y2="118.464"/>
		
			<line clip-path="url(#SVGID_2_)" fill="none" stroke="#FFFFFF" stroke-width="0.55" x1="56.256" y1="25.66" x2="89.758" y2="118.464"/>
		
			<line clip-path="url(#SVGID_2_)" fill="none" stroke="#FFFFFF" stroke-width="0.55" x1="57.928" y1="25.66" x2="91.43" y2="118.464"/>
		
			<line clip-path="url(#SVGID_2_)" fill="none" stroke="#FFFFFF" stroke-width="0.55" x1="59.6" y1="25.66" x2="93.102" y2="118.464"/>
		
			<line clip-path="url(#SVGID_2_)" fill="none" stroke="#FFFFFF" stroke-width="0.55" x1="61.272" y1="25.66" x2="94.774" y2="118.464"/>
		
			<line clip-path="url(#SVGID_2_)" fill="none" stroke="#FFFFFF" stroke-width="0.55" x1="62.944" y1="25.66" x2="96.446" y2="118.464"/>
		
			<line clip-path="url(#SVGID_2_)" fill="none" stroke="#FFFFFF" stroke-width="0.55" x1="64.616" y1="25.66" x2="98.118" y2="118.464"/>
		
			<line clip-path="url(#SVGID_2_)" fill="none" stroke="#FFFFFF" stroke-width="0.55" x1="66.288" y1="25.66" x2="99.79" y2="118.464"/>
		
			<line clip-path="url(#SVGID_2_)" fill="none" stroke="#FFFFFF" stroke-width="0.55" x1="67.959" y1="25.661" x2="101.461" y2="118.464"/>
		
			<line clip-path="url(#SVGID_2_)" fill="none" stroke="#FFFFFF" stroke-width="0.55" x1="69.631" y1="25.66" x2="103.133" y2="118.464"/>
		
			<line clip-path="url(#SVGID_2_)" fill="none" stroke="#FFFFFF" stroke-width="0.55" x1="71.303" y1="25.66" x2="104.805" y2="118.464"/>
		
			<line clip-path="url(#SVGID_2_)" fill="none" stroke="#FFFFFF" stroke-width="0.55" x1="72.975" y1="25.66" x2="106.477" y2="118.464"/>
		
			<line clip-path="url(#SVGID_2_)" fill="none" stroke="#FFFFFF" stroke-width="0.55" x1="74.647" y1="25.66" x2="108.149" y2="118.464"/>
		
			<line clip-path="url(#SVGID_2_)" fill="none" stroke="#FFFFFF" stroke-width="0.55" x1="76.319" y1="25.66" x2="109.821" y2="118.464"/>
		
			<line clip-path="url(#SVGID_2_)" fill="none" stroke="#FFFFFF" stroke-width="0.55" x1="77.991" y1="25.66" x2="111.493" y2="118.464"/>
		
			<line clip-path="url(#SVGID_2_)" fill="none" stroke="#FFFFFF" stroke-width="0.55" x1="79.663" y1="25.66" x2="113.165" y2="118.464"/>
		
			<line clip-path="url(#SVGID_2_)" fill="none" stroke="#FFFFFF" stroke-width="0.55" x1="81.334" y1="25.66" x2="114.836" y2="118.464"/>
		
			<line clip-path="url(#SVGID_2_)" fill="none" stroke="#FFFFFF" stroke-width="0.55" x1="83.006" y1="25.66" x2="116.508" y2="118.464"/>
	</g>
	<g>
		<defs>
			<path id="SVGID_3_" d="M64.857,20.024c-3.62,0.016-7.326,0.627-11.012,1.929c-3.064,1.083-5.977,2.426-8.686,4.001
				c-4.231,2.46-7.849,4.885-10.829,8.436c0,0,3.459-1.428,5.292-2.177c4.819-1.558,10.396-2.489,15.449-2.41
				c9.071,0.141,19.985,4.535,27.295,12.379l-0.046-17.395c-5.092-2.984-10.995-4.734-17.162-4.763H64.857z"/>
		</defs>
		<clipPath id="SVGID_4_">
			<use xlink:href="#SVGID_3_"  overflow="visible"/>
		</clipPath>
		
			<line clip-path="url(#SVGID_4_)" fill="none" stroke="#FFFFFF" stroke-width="0.45" x1="65.252" y1="-17.979" x2="1.43" y2="92.618"/>
		
			<line clip-path="url(#SVGID_4_)" fill="none" stroke="#FFFFFF" stroke-width="0.45" x1="66.951" y1="-17.979" x2="3.128" y2="92.616"/>
		
			<line clip-path="url(#SVGID_4_)" fill="none" stroke="#FFFFFF" stroke-width="0.45" x1="68.649" y1="-17.979" x2="4.828" y2="92.618"/>
		
			<line clip-path="url(#SVGID_4_)" fill="none" stroke="#FFFFFF" stroke-width="0.45" x1="70.348" y1="-17.979" x2="6.526" y2="92.618"/>
		
			<line clip-path="url(#SVGID_4_)" fill="none" stroke="#FFFFFF" stroke-width="0.45" x1="72.046" y1="-17.979" x2="8.225" y2="92.618"/>
		
			<line clip-path="url(#SVGID_4_)" fill="none" stroke="#FFFFFF" stroke-width="0.45" x1="73.745" y1="-17.979" x2="9.924" y2="92.616"/>
		
			<line clip-path="url(#SVGID_4_)" fill="none" stroke="#FFFFFF" stroke-width="0.45" x1="75.444" y1="-17.979" x2="11.622" y2="92.616"/>
		
			<line clip-path="url(#SVGID_4_)" fill="none" stroke="#FFFFFF" stroke-width="0.45" x1="77.142" y1="-17.979" x2="13.322" y2="92.616"/>
		
			<line clip-path="url(#SVGID_4_)" fill="none" stroke="#FFFFFF" stroke-width="0.45" x1="78.841" y1="-17.98" x2="15.019" y2="92.618"/>
		
			<line clip-path="url(#SVGID_4_)" fill="none" stroke="#FFFFFF" stroke-width="0.45" x1="80.54" y1="-17.979" x2="16.718" y2="92.618"/>
		
			<line clip-path="url(#SVGID_4_)" fill="none" stroke="#FFFFFF" stroke-width="0.45" x1="82.238" y1="-17.979" x2="18.417" y2="92.618"/>
		
			<line clip-path="url(#SVGID_4_)" fill="none" stroke="#FFFFFF" stroke-width="0.45" x1="83.937" y1="-17.979" x2="20.116" y2="92.616"/>
		
			<line clip-path="url(#SVGID_4_)" fill="none" stroke="#FFFFFF" stroke-width="0.45" x1="85.635" y1="-17.979" x2="21.813" y2="92.616"/>
		
			<line clip-path="url(#SVGID_4_)" fill="none" stroke="#FFFFFF" stroke-width="0.45" x1="87.334" y1="-17.979" x2="23.512" y2="92.618"/>
		
			<line clip-path="url(#SVGID_4_)" fill="none" stroke="#FFFFFF" stroke-width="0.45" x1="89.033" y1="-17.979" x2="25.211" y2="92.616"/>
		
			<line clip-path="url(#SVGID_4_)" fill="none" stroke="#FFFFFF" stroke-width="0.45" x1="90.731" y1="-17.979" x2="26.909" y2="92.618"/>
		
			<line clip-path="url(#SVGID_4_)" fill="none" stroke="#FFFFFF" stroke-width="0.45" x1="92.43" y1="-17.979" x2="28.608" y2="92.618"/>
		
			<line clip-path="url(#SVGID_4_)" fill="none" stroke="#FFFFFF" stroke-width="0.45" x1="94.128" y1="-17.979" x2="30.307" y2="92.618"/>
		
			<line clip-path="url(#SVGID_4_)" fill="none" stroke="#FFFFFF" stroke-width="0.45" x1="95.828" y1="-17.979" x2="32.006" y2="92.616"/>
		
			<line clip-path="url(#SVGID_4_)" fill="none" stroke="#FFFFFF" stroke-width="0.45" x1="97.526" y1="-17.979" x2="33.705" y2="92.616"/>
		
			<line clip-path="url(#SVGID_4_)" fill="none" stroke="#FFFFFF" stroke-width="0.45" x1="99.224" y1="-17.979" x2="35.404" y2="92.616"/>
		
			<line clip-path="url(#SVGID_4_)" fill="none" stroke="#FFFFFF" stroke-width="0.45" x1="100.923" y1="-17.98" x2="37.101" y2="92.618"/>
		
			<line clip-path="url(#SVGID_4_)" fill="none" stroke="#FFFFFF" stroke-width="0.45" x1="102.622" y1="-17.979" x2="38.801" y2="92.618"/>
		
			<line clip-path="url(#SVGID_4_)" fill="none" stroke="#FFFFFF" stroke-width="0.45" x1="104.321" y1="-17.979" x2="40.499" y2="92.618"/>
		
			<line clip-path="url(#SVGID_4_)" fill="none" stroke="#FFFFFF" stroke-width="0.45" x1="106.019" y1="-17.979" x2="42.197" y2="92.616"/>
		
			<line clip-path="url(#SVGID_4_)" fill="none" stroke="#FFFFFF" stroke-width="0.45" x1="107.717" y1="-17.979" x2="43.896" y2="92.616"/>
		
			<line clip-path="url(#SVGID_4_)" fill="none" stroke="#FFFFFF" stroke-width="0.45" x1="109.417" y1="-17.979" x2="45.594" y2="92.618"/>
		
			<line clip-path="url(#SVGID_4_)" fill="none" stroke="#FFFFFF" stroke-width="0.45" x1="111.115" y1="-17.979" x2="47.292" y2="92.616"/>
		
			<line clip-path="url(#SVGID_4_)" fill="none" stroke="#FFFFFF" stroke-width="0.45" x1="112.814" y1="-17.979" x2="48.992" y2="92.618"/>
		
			<line clip-path="url(#SVGID_4_)" fill="none" stroke="#FFFFFF" stroke-width="0.45" x1="114.512" y1="-17.979" x2="50.69" y2="92.618"/>
		
			<line clip-path="url(#SVGID_4_)" fill="none" stroke="#FFFFFF" stroke-width="0.45" x1="116.21" y1="-17.979" x2="52.388" y2="92.618"/>
		
			<line clip-path="url(#SVGID_4_)" fill="none" stroke="#FFFFFF" stroke-width="0.45" x1="117.91" y1="-17.979" x2="54.088" y2="92.616"/>
		
			<line clip-path="url(#SVGID_4_)" fill="none" stroke="#FFFFFF" stroke-width="0.45" x1="119.608" y1="-17.979" x2="55.787" y2="92.616"/>
		
			<line clip-path="url(#SVGID_4_)" fill="none" stroke="#FFFFFF" stroke-width="0.45" x1="121.307" y1="-17.979" x2="57.486" y2="92.616"/>
		
			<line clip-path="url(#SVGID_4_)" fill="none" stroke="#FFFFFF" stroke-width="0.45" x1="123.005" y1="-17.98" x2="59.183" y2="92.618"/>
		
			<line clip-path="url(#SVGID_4_)" fill="none" stroke="#FFFFFF" stroke-width="0.45" x1="124.704" y1="-17.979" x2="60.883" y2="92.618"/>
		
			<line clip-path="url(#SVGID_4_)" fill="none" stroke="#FFFFFF" stroke-width="0.45" x1="126.403" y1="-17.979" x2="62.581" y2="92.618"/>
		
			<line clip-path="url(#SVGID_4_)" fill="none" stroke="#FFFFFF" stroke-width="0.45" x1="128.101" y1="-17.979" x2="64.28" y2="92.616"/>
		
			<line clip-path="url(#SVGID_4_)" fill="none" stroke="#FFFFFF" stroke-width="0.45" x1="129.8" y1="-17.979" x2="65.978" y2="92.616"/>
		
			<line clip-path="url(#SVGID_4_)" fill="none" stroke="#FFFFFF" stroke-width="0.45" x1="131.499" y1="-17.979" x2="67.677" y2="92.618"/>
		
			<line clip-path="url(#SVGID_4_)" fill="none" stroke="#FFFFFF" stroke-width="0.45" x1="133.197" y1="-17.979" x2="69.375" y2="92.616"/>
		
			<line clip-path="url(#SVGID_4_)" fill="none" stroke="#FFFFFF" stroke-width="0.45" x1="134.896" y1="-17.979" x2="71.075" y2="92.616"/>
		
			<line clip-path="url(#SVGID_4_)" fill="none" stroke="#FFFFFF" stroke-width="0.45" x1="136.594" y1="-17.979" x2="72.772" y2="92.618"/>
		
			<line clip-path="url(#SVGID_4_)" fill="none" stroke="#FFFFFF" stroke-width="0.45" x1="138.293" y1="-17.979" x2="74.471" y2="92.618"/>
		
			<line clip-path="url(#SVGID_4_)" fill="none" stroke="#FFFFFF" stroke-width="0.45" x1="139.992" y1="-17.979" x2="76.17" y2="92.616"/>
		
			<line clip-path="url(#SVGID_4_)" fill="none" stroke="#FFFFFF" stroke-width="0.45" x1="141.691" y1="-17.979" x2="77.868" y2="92.616"/>
		
			<line clip-path="url(#SVGID_4_)" fill="none" stroke="#FFFFFF" stroke-width="0.45" x1="143.389" y1="-17.979" x2="79.568" y2="92.616"/>
		
			<line clip-path="url(#SVGID_4_)" fill="none" stroke="#FFFFFF" stroke-width="0.45" x1="145.088" y1="-17.98" x2="81.266" y2="92.618"/>
	</g>
	<g>
		<defs>
			<path id="SVGID_5_" d="M38.915,32.497c-2.541,1.125-4.961,2.126-4.961,2.126c-5.146,6.131-8.787,15.023-7.512,24.662
				c1.843-8.362,9.622-14.832,17.985-14.832h8.163l2.699,8.354H44.427c-4.979,0-9.661,4.703-9.661,9.682
				c0,4.978,4.683,9.729,9.661,9.729h10.575l-6.119,8.305h-4.456c-4.805-0.262-8.603-1.893-11.465-3.805
				c6.943,10.486,20.781,16.955,33.874,14.455c4.935-0.943,11.109-3.088,15.545-5.951l0.016-27.42L65.601,80.524H55.433
				l8.202-11.085c1.773-2.631,1.02-5.063,1.02-5.063l-6.466-19.923h8.729l4.629,14.349l10.599-14.349h0.259l0.001-1.893
				c-7.66-8.757-17.458-12.615-28.041-12.615c0,0-0.761-0.068-2.029-0.068C49.479,29.876,44.045,30.226,38.915,32.497"/>
		</defs>
		<clipPath id="SVGID_6_">
			<use xlink:href="#SVGID_5_"  overflow="visible"/>
		</clipPath>
		
			<line clip-path="url(#SVGID_6_)" fill="none" stroke="#FFFFFF" stroke-width="0.75" x1="25.647" y1="-20.013" x2="-3.463" y2="146.569"/>
		
			<line clip-path="url(#SVGID_6_)" fill="none" stroke="#FFFFFF" stroke-width="0.75" x1="26.958" y1="-20.013" x2="-2.152" y2="146.569"/>
		
			<line clip-path="url(#SVGID_6_)" fill="none" stroke="#FFFFFF" stroke-width="0.75" x1="28.27" y1="-20.014" x2="-0.84" y2="146.569"/>
		
			<line clip-path="url(#SVGID_6_)" fill="none" stroke="#FFFFFF" stroke-width="0.75" x1="29.582" y1="-20.014" x2="0.471" y2="146.569"/>
		
			<line clip-path="url(#SVGID_6_)" fill="none" stroke="#FFFFFF" stroke-width="0.75" x1="30.894" y1="-20.014" x2="1.783" y2="146.569"/>
		
			<line clip-path="url(#SVGID_6_)" fill="none" stroke="#FFFFFF" stroke-width="0.75" x1="32.205" y1="-20.013" x2="3.095" y2="146.569"/>
		
			<line clip-path="url(#SVGID_6_)" fill="none" stroke="#FFFFFF" stroke-width="0.75" x1="33.517" y1="-20.013" x2="4.406" y2="146.569"/>
		
			<line clip-path="url(#SVGID_6_)" fill="none" stroke="#FFFFFF" stroke-width="0.75" x1="34.829" y1="-20.013" x2="5.717" y2="146.569"/>
		
			<line clip-path="url(#SVGID_6_)" fill="none" stroke="#FFFFFF" stroke-width="0.75" x1="36.14" y1="-20.013" x2="7.029" y2="146.571"/>
		
			<line clip-path="url(#SVGID_6_)" fill="none" stroke="#FFFFFF" stroke-width="0.75" x1="37.452" y1="-20.015" x2="8.34" y2="146.569"/>
		
			<line clip-path="url(#SVGID_6_)" fill="none" stroke="#FFFFFF" stroke-width="0.75" x1="38.763" y1="-20.014" x2="9.652" y2="146.569"/>
		
			<line clip-path="url(#SVGID_6_)" fill="none" stroke="#FFFFFF" stroke-width="0.75" x1="40.075" y1="-20.014" x2="10.964" y2="146.569"/>
		
			<line clip-path="url(#SVGID_6_)" fill="none" stroke="#FFFFFF" stroke-width="0.75" x1="41.386" y1="-20.014" x2="12.276" y2="146.569"/>
		
			<line clip-path="url(#SVGID_6_)" fill="none" stroke="#FFFFFF" stroke-width="0.75" x1="42.698" y1="-20.014" x2="13.587" y2="146.569"/>
		
			<line clip-path="url(#SVGID_6_)" fill="none" stroke="#FFFFFF" stroke-width="0.75" x1="44.009" y1="-20.014" x2="14.899" y2="146.569"/>
		
			<line clip-path="url(#SVGID_6_)" fill="none" stroke="#FFFFFF" stroke-width="0.75" x1="45.321" y1="-20.013" x2="16.211" y2="146.569"/>
		
			<line clip-path="url(#SVGID_6_)" fill="none" stroke="#FFFFFF" stroke-width="0.75" x1="46.632" y1="-20.014" x2="17.523" y2="146.569"/>
		
			<line clip-path="url(#SVGID_6_)" fill="none" stroke="#FFFFFF" stroke-width="0.75" x1="47.944" y1="-20.014" x2="18.834" y2="146.569"/>
		
			<line clip-path="url(#SVGID_6_)" fill="none" stroke="#FFFFFF" stroke-width="0.75" x1="49.256" y1="-20.014" x2="20.146" y2="146.569"/>
		
			<line clip-path="url(#SVGID_6_)" fill="none" stroke="#FFFFFF" stroke-width="0.75" x1="50.568" y1="-20.014" x2="21.458" y2="146.569"/>
		
			<line clip-path="url(#SVGID_6_)" fill="none" stroke="#FFFFFF" stroke-width="0.75" x1="51.879" y1="-20.013" x2="22.769" y2="146.569"/>
		
			<line clip-path="url(#SVGID_6_)" fill="none" stroke="#FFFFFF" stroke-width="0.75" x1="53.191" y1="-20.013" x2="24.081" y2="146.569"/>
		
			<line clip-path="url(#SVGID_6_)" fill="none" stroke="#FFFFFF" stroke-width="0.75" x1="54.502" y1="-20.014" x2="25.392" y2="146.569"/>
		
			<line clip-path="url(#SVGID_6_)" fill="none" stroke="#FFFFFF" stroke-width="0.75" x1="55.814" y1="-20.014" x2="26.704" y2="146.569"/>
		
			<line clip-path="url(#SVGID_6_)" fill="none" stroke="#FFFFFF" stroke-width="0.75" x1="57.125" y1="-20.014" x2="28.015" y2="146.569"/>
		
			<line clip-path="url(#SVGID_6_)" fill="none" stroke="#FFFFFF" stroke-width="0.75" x1="58.438" y1="-20.013" x2="29.327" y2="146.569"/>
		
			<line clip-path="url(#SVGID_6_)" fill="none" stroke="#FFFFFF" stroke-width="0.75" x1="59.75" y1="-20.013" x2="30.638" y2="146.569"/>
		
			<line clip-path="url(#SVGID_6_)" fill="none" stroke="#FFFFFF" stroke-width="0.75" x1="61.061" y1="-20.013" x2="31.95" y2="146.569"/>
		
			<line clip-path="url(#SVGID_6_)" fill="none" stroke="#FFFFFF" stroke-width="0.75" x1="62.373" y1="-20.013" x2="33.261" y2="146.569"/>
		
			<line clip-path="url(#SVGID_6_)" fill="none" stroke="#FFFFFF" stroke-width="0.75" x1="63.684" y1="-20.015" x2="34.573" y2="146.569"/>
		
			<line clip-path="url(#SVGID_6_)" fill="none" stroke="#FFFFFF" stroke-width="0.75" x1="64.996" y1="-20.014" x2="35.884" y2="146.569"/>
		
			<line clip-path="url(#SVGID_6_)" fill="none" stroke="#FFFFFF" stroke-width="0.75" x1="66.307" y1="-20.014" x2="37.197" y2="146.569"/>
		
			<line clip-path="url(#SVGID_6_)" fill="none" stroke="#FFFFFF" stroke-width="0.75" x1="67.619" y1="-20.014" x2="38.509" y2="146.569"/>
		
			<line clip-path="url(#SVGID_6_)" fill="none" stroke="#FFFFFF" stroke-width="0.75" x1="68.93" y1="-20.014" x2="39.821" y2="146.569"/>
		
			<line clip-path="url(#SVGID_6_)" fill="none" stroke="#FFFFFF" stroke-width="0.75" x1="70.243" y1="-20.014" x2="41.131" y2="146.569"/>
		
			<line clip-path="url(#SVGID_6_)" fill="none" stroke="#FFFFFF" stroke-width="0.75" x1="71.553" y1="-20.013" x2="42.444" y2="146.569"/>
		
			<line clip-path="url(#SVGID_6_)" fill="none" stroke="#FFFFFF" stroke-width="0.75" x1="72.866" y1="-20.014" x2="43.754" y2="146.569"/>
		
			<line clip-path="url(#SVGID_6_)" fill="none" stroke="#FFFFFF" stroke-width="0.75" x1="74.177" y1="-20.014" x2="45.066" y2="146.569"/>
		
			<line clip-path="url(#SVGID_6_)" fill="none" stroke="#FFFFFF" stroke-width="0.75" x1="75.489" y1="-20.014" x2="46.377" y2="146.569"/>
		
			<line clip-path="url(#SVGID_6_)" fill="none" stroke="#FFFFFF" stroke-width="0.75" x1="76.8" y1="-20.014" x2="47.69" y2="146.569"/>
		
			<line clip-path="url(#SVGID_6_)" fill="none" stroke="#FFFFFF" stroke-width="0.75" x1="78.112" y1="-20.013" x2="49.001" y2="146.569"/>
		
			<line clip-path="url(#SVGID_6_)" fill="none" stroke="#FFFFFF" stroke-width="0.75" x1="79.423" y1="-20.013" x2="50.313" y2="146.569"/>
		
			<line clip-path="url(#SVGID_6_)" fill="none" stroke="#FFFFFF" stroke-width="0.75" x1="80.735" y1="-20.013" x2="51.625" y2="146.569"/>
		
			<line clip-path="url(#SVGID_6_)" fill="none" stroke="#FFFFFF" stroke-width="0.75" x1="82.046" y1="-20.014" x2="52.936" y2="146.569"/>
		
			<line clip-path="url(#SVGID_6_)" fill="none" stroke="#FFFFFF" stroke-width="0.75" x1="83.359" y1="-20.014" x2="54.248" y2="146.569"/>
		
			<line clip-path="url(#SVGID_6_)" fill="none" stroke="#FFFFFF" stroke-width="0.75" x1="84.669" y1="-20.013" x2="55.559" y2="146.569"/>
		
			<line clip-path="url(#SVGID_6_)" fill="none" stroke="#FFFFFF" stroke-width="0.75" x1="85.982" y1="-20.013" x2="56.872" y2="146.569"/>
		
			<line clip-path="url(#SVGID_6_)" fill="none" stroke="#FFFFFF" stroke-width="0.75" x1="87.293" y1="-20.013" x2="58.183" y2="146.569"/>
		
			<line clip-path="url(#SVGID_6_)" fill="none" stroke="#FFFFFF" stroke-width="0.75" x1="88.605" y1="-20.014" x2="59.495" y2="146.569"/>
		
			<line clip-path="url(#SVGID_6_)" fill="none" stroke="#FFFFFF" stroke-width="0.75" x1="89.917" y1="-20.015" x2="60.806" y2="146.569"/>
		
			<line clip-path="url(#SVGID_6_)" fill="none" stroke="#FFFFFF" stroke-width="0.75" x1="91.228" y1="-20.014" x2="62.118" y2="146.569"/>
		
			<line clip-path="url(#SVGID_6_)" fill="none" stroke="#FFFFFF" stroke-width="0.75" x1="92.54" y1="-20.014" x2="63.43" y2="146.569"/>
		
			<line clip-path="url(#SVGID_6_)" fill="none" stroke="#FFFFFF" stroke-width="0.75" x1="93.851" y1="-20.014" x2="64.741" y2="146.569"/>
		
			<line clip-path="url(#SVGID_6_)" fill="none" stroke="#FFFFFF" stroke-width="0.75" x1="95.164" y1="-20.014" x2="66.052" y2="146.569"/>
		
			<line clip-path="url(#SVGID_6_)" fill="none" stroke="#FFFFFF" stroke-width="0.75" x1="96.475" y1="-20.014" x2="67.364" y2="146.569"/>
		
			<line clip-path="url(#SVGID_6_)" fill="none" stroke="#FFFFFF" stroke-width="0.75" x1="97.787" y1="-20.013" x2="68.675" y2="146.569"/>
		
			<line clip-path="url(#SVGID_6_)" fill="none" stroke="#FFFFFF" stroke-width="0.75" x1="99.098" y1="-20.014" x2="69.987" y2="146.569"/>
		
			<line clip-path="url(#SVGID_6_)" fill="none" stroke="#FFFFFF" stroke-width="0.75" x1="100.41" y1="-20.014" x2="71.298" y2="146.569"/>
		
			<line clip-path="url(#SVGID_6_)" fill="none" stroke="#FFFFFF" stroke-width="0.75" x1="101.721" y1="-20.014" x2="72.611" y2="146.569"/>
		
			<line clip-path="url(#SVGID_6_)" fill="none" stroke="#FFFFFF" stroke-width="0.75" x1="103.033" y1="-20.014" x2="73.922" y2="146.569"/>
		
			<line clip-path="url(#SVGID_6_)" fill="none" stroke="#FFFFFF" stroke-width="0.75" x1="104.344" y1="-20.013" x2="75.234" y2="146.569"/>
	</g>
</g>
</svg>
