<?xml version="1.0" encoding="utf-8"?>
<!-- Generator: Adobe Illustrator 16.0.0, SVG Export Plug-In . SVG Version: 6.00 Build 0)  -->
<!DOCTYPE svg PUBLIC "-//W3C//DTD SVG 1.1//EN" "http://www.w3.org/Graphics/SVG/1.1/DTD/svg11.dtd">
<svg version="1.1" id="Calque_1" xmlns="http://www.w3.org/2000/svg" xmlns:xlink="http://www.w3.org/1999/xlink" x="0px" y="0px"
	 width="286px" height="125px" viewBox="0 0 286 125" enable-background="new 0 0 286 125" xml:space="preserve">
<g>
	<rect x="82.233" y="20.052" fill="#1D1D1B" width="0.426" height="84.865"/>
	<g>
		<path fill="#1D1D1B" d="M101.008,74.749c5.937,0,9.903-3.6,9.903-10.527v-13.62h-2.678v13.823c0,5.195-2.781,7.845-7.158,7.845
			c-4.51,0-7.258-2.888-7.258-8.015V50.602h-2.679v13.823C91.139,71.149,95.141,74.749,101.008,74.749 M113.946,74.374h2.61V54.882
			l15.331,19.492h2.137V50.602h-2.611v19.052l-14.957-19.052h-2.51V74.374z M137.243,74.374h2.681V50.602h-2.681V74.374z
			 M153.015,74.544h2.373l10.209-23.942h-2.883l-8.479,20.479l-8.445-20.479h-2.984L153.015,74.544z M167.396,74.374h17.33v-2.445
			h-14.652v-8.319h12.957v-2.445h-12.957v-8.116h14.484v-2.446h-17.162V74.374z M187.235,74.374h2.68v-9.236h6.783l6.885,9.236
			h3.289l-7.291-9.711c3.73-0.68,6.443-2.99,6.443-6.929v-0.068c0-1.868-0.678-3.532-1.832-4.687
			c-1.492-1.494-3.832-2.377-6.748-2.377h-10.209V74.374z M189.915,62.726v-9.645h7.326c3.832,0,6.07,1.766,6.07,4.687v0.068
			c0,3.056-2.543,4.89-6.105,4.89H189.915z M217.438,74.714c4.713,0,8.104-2.648,8.104-6.724v-0.067c0-3.635-2.439-5.57-7.73-6.725
			c-5.225-1.12-6.445-2.377-6.445-4.619v-0.067c0-2.14,1.967-3.838,5.053-3.838c2.443,0,4.646,0.781,6.852,2.581l1.561-2.071
			c-2.408-1.936-4.885-2.921-8.344-2.921c-4.51,0-7.801,2.751-7.801,6.486v0.069c0,3.905,2.51,5.67,7.971,6.859
			c4.986,1.054,6.172,2.311,6.172,4.518v0.066c0,2.345-2.102,4.043-5.291,4.043c-3.289,0-5.664-1.121-8.139-3.363l-1.662,1.971
			C210.585,73.458,213.671,74.714,217.438,74.714 M228.358,74.374h2.68V50.602h-2.68V74.374z M241.38,74.374h2.713V53.081h7.971
			v-2.479h-18.654v2.479h7.971V74.374z M261.729,48.497h2.17l3.898-3.158l-2.521,0.035L261.729,48.497z M254.198,74.374h17.332
			v-2.445h-14.652v-8.319h12.957v-2.445h-12.957v-8.116h14.482v-2.446h-17.162V74.374z"/>
		<path fill="#1D1D1B" d="M95.31,44.422c1.518,0,2.475-0.586,3.346-1.47l-0.621-0.61c-0.801,0.765-1.553,1.207-2.7,1.207
			c-1.841,0-3.238-1.518-3.238-3.454v-0.024c0-1.924,1.386-3.429,3.238-3.429c1.136,0,1.924,0.477,2.629,1.146l0.646-0.692
			c-0.836-0.789-1.744-1.327-3.263-1.327c-2.461,0-4.229,1.96-4.229,4.326v0.024C91.116,42.521,92.896,44.422,95.31,44.422
			 M99.589,44.278h6.107v-0.86h-5.164V40.49h4.565v-0.861h-4.565v-2.856h5.104v-0.86h-6.047V44.278z M106.879,44.278h0.944v-3.251
			h2.39l2.426,3.251h1.159l-2.568-3.418c1.313-0.239,2.271-1.052,2.271-2.438v-0.024c0-0.658-0.239-1.242-0.646-1.649
			c-0.525-0.526-1.351-0.836-2.379-0.836h-3.597V44.278z M107.823,40.179v-3.394h2.58c1.352,0,2.14,0.621,2.14,1.649v0.024
			c0,1.076-0.896,1.721-2.151,1.721H107.823z M118.686,44.422c1.41,0,2.581-0.586,3.358-1.279v-3.335h-3.454v0.849h2.546v2.08
			c-0.574,0.466-1.458,0.836-2.414,0.836c-2.031,0-3.311-1.481-3.311-3.478v-0.024c0-1.864,1.326-3.429,3.179-3.429
			c1.183,0,1.901,0.394,2.546,0.955l0.609-0.717c-0.836-0.705-1.709-1.111-3.119-1.111c-2.51,0-4.195,2.032-4.195,4.326v0.024
			C114.431,42.509,116.057,44.422,118.686,44.422 M133.804,44.278h0.943v-2.952h2.031c1.781,0,3.287-0.932,3.287-2.737v-0.024
			c0-1.649-1.242-2.652-3.131-2.652h-3.131V44.278z M134.747,40.466v-3.681h2.115c1.351,0,2.248,0.621,2.248,1.817v0.023
			c0,1.099-0.91,1.841-2.295,1.841H134.747z M139.516,44.278h0.968l0.992-2.211h4.555l0.979,2.211h1.016l-3.813-8.426h-0.883
			L139.516,44.278z M141.845,41.207l1.914-4.255l1.9,4.255H141.845z M148.958,44.278h0.943v-3.251h2.389l2.426,3.251h1.16
			l-2.57-3.418c1.316-0.239,2.271-1.052,2.271-2.438v-0.024c0-0.658-0.238-1.242-0.645-1.649c-0.525-0.526-1.35-0.836-2.379-0.836
			h-3.596V44.278z M149.901,40.179v-3.394h2.582c1.35,0,2.139,0.621,2.139,1.649v0.024c0,1.076-0.896,1.721-2.152,1.721H149.901z
			 M156.964,44.278h0.943v-8.365h-0.943V44.278z M162.509,44.398c1.662,0,2.857-0.932,2.857-2.367v-0.024
			c0-1.278-0.861-1.959-2.725-2.366c-1.842-0.394-2.271-0.837-2.271-1.625v-0.024c0-0.753,0.693-1.35,1.779-1.35
			c0.861,0,1.639,0.274,2.416,0.908l0.549-0.729c-0.848-0.682-1.721-1.028-2.941-1.028c-1.588,0-2.748,0.968-2.748,2.282v0.024
			c0,1.375,0.885,1.996,2.809,2.415c1.758,0.37,2.176,0.812,2.176,1.589v0.024c0,0.825-0.74,1.422-1.865,1.422
			c-1.158,0-1.996-0.394-2.867-1.183l-0.586,0.693C160.095,43.955,161.183,44.398,162.509,44.398"/>
		<path fill="#1D1D1B" d="M125.063,41.727l-1.911,2.583h1.131l6.213-8.405h-1.119l-3.158,4.143l-1.365-4.143h-1.059l1.506,4.642
			C125.3,40.546,125.476,41.114,125.063,41.727"/>
		<path fill="#1D1D1B" d="M82.353,91.54c-4.271,5.168-9.685,9.291-15.654,11.584c-3.247,1.248-6.46,1.824-9.624,1.824
			c-9.626,0-18.765-5.346-26.786-13.408c-3.198-3.213-6.216-6.861-9.02-10.771c-0.828-1.156-1.639-2.331-2.428-3.528
			c-7.248-11.003-4.818-22.705,2.428-31.672c3.434-4.248,7.885-7.65,12.635-10.65c0,0-11.332,10.167-8,27.939
			c3.736,19.916,24.085,32.478,42.335,28.896c4.915-0.967,9.823-2.9,14.25-5.752"/>
		<path fill="#1D1D1B" d="M82.396,24.816c-8.16-4.782-18.398-6.396-28.477-2.834c-3.063,1.083-5.976,2.426-8.685,4.001
			c-4.233,2.46-7.849,4.885-10.83,8.436c0,0,3.167-2.167,5-2.917c4.794-1.961,9.529-2.75,14.583-2.75
			c10.567,0,20.797,4.022,28.454,12.75"/>
		<path fill="#1D1D1B" d="M38.987,33.335c7.41-3.28,14.875-2.833,14.875-2.833c10.584,0,20.957,4.326,28.617,13.083v0.896h-0.261
			L71.62,58.83l-4.629-14.349h-8.729l6.467,19.923c0,0,0.754,2.435-1.021,5.063l-8.201,11.086h10.167L82.471,57.83l-0.017,26.173
			c-4.434,2.862-9.532,5.057-14.467,6c-13.092,2.5-25.735-2.49-33.484-12.482c2.863,1.912,6.3,3.031,9.999,3.031h4.456l6.119-8.305
			H44.502c-4.978,0-9.662-4.754-9.662-9.731c0-4.979,4.685-9.681,9.662-9.681h10.862l-2.699-8.354h-8.163
			c-8.363,0-15.396,5.704-17.435,13.43c-0.511-8.533,2.44-15.527,7.588-21.659C34.655,36.252,36.446,34.46,38.987,33.335"/>
	</g>
</g>
</svg>
