<?xml version="1.0" encoding="utf-8"?>
<!-- Generator: Adobe Illustrator 16.0.0, SVG Export Plug-In . SVG Version: 6.00 Build 0)  -->
<!DOCTYPE svg PUBLIC "-//W3C//DTD SVG 1.1//EN" "http://www.w3.org/Graphics/SVG/1.1/DTD/svg11.dtd">
<svg version="1.1" id="Calque_1" xmlns="http://www.w3.org/2000/svg" xmlns:xlink="http://www.w3.org/1999/xlink" x="0px" y="0px"
	 width="253.5px" height="125px" viewBox="32.5 0 253.5 125" enable-background="new 32.5 0 253.5 125" xml:space="preserve">
<g>
	<rect x="134.845" y="20.111" fill="#1D1D1B" width="0.426" height="84.864"/>
	<g>
		<defs>
			<path id="SVGID_1_" d="M73.731,45.54c-4.2,5.198-6.782,11.315-6.799,17.681v0.125c0.012,4.577,1.352,9.282,4.373,13.866
				c0.787,1.197,1.598,2.371,2.426,3.527c2.805,3.911,5.822,7.559,9.02,10.771c8.023,8.063,17.16,13.408,26.787,13.408
				c3.163,0,6.376-0.576,9.623-1.824c5.971-2.293,11.384-6.416,15.654-11.584l0.136-6.246c-4.427,2.851-9.335,4.785-14.25,5.75
				c-18.251,3.584-37.56-8.697-41.297-28.613c-3.333-17.77,6.964-27.512,6.964-27.512C81.618,37.891,77.166,41.292,73.731,45.54"/>
		</defs>
		<clipPath id="SVGID_2_">
			<use xlink:href="#SVGID_1_"  overflow="visible"/>
		</clipPath>
		
			<line clip-path="url(#SVGID_2_)" fill="none" stroke="#1D1D1B" stroke-width="0.55" x1="50.277" y1="25.66" x2="83.779" y2="118.464"/>
		
			<line clip-path="url(#SVGID_2_)" fill="none" stroke="#1D1D1B" stroke-width="0.55" x1="51.949" y1="25.66" x2="85.451" y2="118.464"/>
		
			<line clip-path="url(#SVGID_2_)" fill="none" stroke="#1D1D1B" stroke-width="0.55" x1="53.621" y1="25.66" x2="87.123" y2="118.464"/>
		
			<line clip-path="url(#SVGID_2_)" fill="none" stroke="#1D1D1B" stroke-width="0.55" x1="55.293" y1="25.66" x2="88.795" y2="118.464"/>
		
			<line clip-path="url(#SVGID_2_)" fill="none" stroke="#1D1D1B" stroke-width="0.55" x1="56.966" y1="25.66" x2="90.468" y2="118.464"/>
		
			<line clip-path="url(#SVGID_2_)" fill="none" stroke="#1D1D1B" stroke-width="0.55" x1="58.638" y1="25.661" x2="92.14" y2="118.464"/>
		
			<line clip-path="url(#SVGID_2_)" fill="none" stroke="#1D1D1B" stroke-width="0.55" x1="60.31" y1="25.66" x2="93.812" y2="118.464"/>
		
			<line clip-path="url(#SVGID_2_)" fill="none" stroke="#1D1D1B" stroke-width="0.55" x1="61.981" y1="25.66" x2="95.483" y2="118.464"/>
		
			<line clip-path="url(#SVGID_2_)" fill="none" stroke="#1D1D1B" stroke-width="0.55" x1="63.652" y1="25.66" x2="97.154" y2="118.464"/>
		
			<line clip-path="url(#SVGID_2_)" fill="none" stroke="#1D1D1B" stroke-width="0.55" x1="65.325" y1="25.66" x2="98.827" y2="118.464"/>
		
			<line clip-path="url(#SVGID_2_)" fill="none" stroke="#1D1D1B" stroke-width="0.55" x1="66.996" y1="25.66" x2="100.498" y2="118.464"/>
		
			<line clip-path="url(#SVGID_2_)" fill="none" stroke="#1D1D1B" stroke-width="0.55" x1="68.669" y1="25.66" x2="102.171" y2="118.464"/>
		
			<line clip-path="url(#SVGID_2_)" fill="none" stroke="#1D1D1B" stroke-width="0.55" x1="70.341" y1="25.66" x2="103.843" y2="118.464"/>
		
			<line clip-path="url(#SVGID_2_)" fill="none" stroke="#1D1D1B" stroke-width="0.55" x1="72.013" y1="25.66" x2="105.515" y2="118.464"/>
		
			<line clip-path="url(#SVGID_2_)" fill="none" stroke="#1D1D1B" stroke-width="0.55" x1="73.685" y1="25.66" x2="107.187" y2="118.464"/>
		
			<line clip-path="url(#SVGID_2_)" fill="none" stroke="#1D1D1B" stroke-width="0.55" x1="75.356" y1="25.66" x2="108.858" y2="118.464"/>
		
			<line clip-path="url(#SVGID_2_)" fill="none" stroke="#1D1D1B" stroke-width="0.55" x1="77.028" y1="25.66" x2="110.53" y2="118.464"/>
		
			<line clip-path="url(#SVGID_2_)" fill="none" stroke="#1D1D1B" stroke-width="0.55" x1="78.699" y1="25.66" x2="112.201" y2="118.464"/>
		
			<line clip-path="url(#SVGID_2_)" fill="none" stroke="#1D1D1B" stroke-width="0.55" x1="80.372" y1="25.66" x2="113.874" y2="118.464"/>
		
			<line clip-path="url(#SVGID_2_)" fill="none" stroke="#1D1D1B" stroke-width="0.55" x1="82.044" y1="25.66" x2="115.546" y2="118.464"/>
		
			<line clip-path="url(#SVGID_2_)" fill="none" stroke="#1D1D1B" stroke-width="0.55" x1="83.716" y1="25.66" x2="117.218" y2="118.464"/>
		
			<line clip-path="url(#SVGID_2_)" fill="none" stroke="#1D1D1B" stroke-width="0.55" x1="85.388" y1="25.661" x2="118.89" y2="118.464"/>
		
			<line clip-path="url(#SVGID_2_)" fill="none" stroke="#1D1D1B" stroke-width="0.55" x1="87.06" y1="25.66" x2="120.562" y2="118.464"/>
		
			<line clip-path="url(#SVGID_2_)" fill="none" stroke="#1D1D1B" stroke-width="0.55" x1="88.731" y1="25.66" x2="122.233" y2="118.464"/>
		
			<line clip-path="url(#SVGID_2_)" fill="none" stroke="#1D1D1B" stroke-width="0.55" x1="90.403" y1="25.66" x2="123.905" y2="118.464"/>
		
			<line clip-path="url(#SVGID_2_)" fill="none" stroke="#1D1D1B" stroke-width="0.55" x1="92.075" y1="25.66" x2="125.577" y2="118.464"/>
		
			<line clip-path="url(#SVGID_2_)" fill="none" stroke="#1D1D1B" stroke-width="0.55" x1="93.747" y1="25.661" x2="127.249" y2="118.464"/>
		
			<line clip-path="url(#SVGID_2_)" fill="none" stroke="#1D1D1B" stroke-width="0.55" x1="95.419" y1="25.66" x2="128.921" y2="118.464"/>
		
			<line clip-path="url(#SVGID_2_)" fill="none" stroke="#1D1D1B" stroke-width="0.55" x1="97.091" y1="25.66" x2="130.593" y2="118.464"/>
		
			<line clip-path="url(#SVGID_2_)" fill="none" stroke="#1D1D1B" stroke-width="0.55" x1="98.763" y1="25.66" x2="132.265" y2="118.464"/>
		
			<line clip-path="url(#SVGID_2_)" fill="none" stroke="#1D1D1B" stroke-width="0.55" x1="100.435" y1="25.66" x2="133.937" y2="118.464"/>
		
			<line clip-path="url(#SVGID_2_)" fill="none" stroke="#1D1D1B" stroke-width="0.55" x1="102.106" y1="25.66" x2="135.608" y2="118.464"/>
		
			<line clip-path="url(#SVGID_2_)" fill="none" stroke="#1D1D1B" stroke-width="0.55" x1="103.778" y1="25.66" x2="137.28" y2="118.464"/>
		
			<line clip-path="url(#SVGID_2_)" fill="none" stroke="#1D1D1B" stroke-width="0.55" x1="105.45" y1="25.66" x2="138.952" y2="118.464"/>
		
			<line clip-path="url(#SVGID_2_)" fill="none" stroke="#1D1D1B" stroke-width="0.55" x1="107.122" y1="25.66" x2="140.624" y2="118.464"/>
		
			<line clip-path="url(#SVGID_2_)" fill="none" stroke="#1D1D1B" stroke-width="0.55" x1="108.794" y1="25.66" x2="142.296" y2="118.464"/>
		
			<line clip-path="url(#SVGID_2_)" fill="none" stroke="#1D1D1B" stroke-width="0.55" x1="110.466" y1="25.66" x2="143.968" y2="118.464"/>
		
			<line clip-path="url(#SVGID_2_)" fill="none" stroke="#1D1D1B" stroke-width="0.55" x1="112.138" y1="25.66" x2="145.64" y2="118.464"/>
		
			<line clip-path="url(#SVGID_2_)" fill="none" stroke="#1D1D1B" stroke-width="0.55" x1="113.81" y1="25.66" x2="147.312" y2="118.464"/>
		
			<line clip-path="url(#SVGID_2_)" fill="none" stroke="#1D1D1B" stroke-width="0.55" x1="115.481" y1="25.66" x2="148.983" y2="118.464"/>
		
			<line clip-path="url(#SVGID_2_)" fill="none" stroke="#1D1D1B" stroke-width="0.55" x1="117.153" y1="25.66" x2="150.655" y2="118.464"/>
		
			<line clip-path="url(#SVGID_2_)" fill="none" stroke="#1D1D1B" stroke-width="0.55" x1="118.825" y1="25.66" x2="152.327" y2="118.464"/>
		
			<line clip-path="url(#SVGID_2_)" fill="none" stroke="#1D1D1B" stroke-width="0.55" x1="120.497" y1="25.661" x2="153.999" y2="118.464"/>
		
			<line clip-path="url(#SVGID_2_)" fill="none" stroke="#1D1D1B" stroke-width="0.55" x1="122.169" y1="25.66" x2="155.671" y2="118.464"/>
		
			<line clip-path="url(#SVGID_2_)" fill="none" stroke="#1D1D1B" stroke-width="0.55" x1="123.841" y1="25.66" x2="157.343" y2="118.464"/>
		
			<line clip-path="url(#SVGID_2_)" fill="none" stroke="#1D1D1B" stroke-width="0.55" x1="125.513" y1="25.66" x2="159.015" y2="118.464"/>
		
			<line clip-path="url(#SVGID_2_)" fill="none" stroke="#1D1D1B" stroke-width="0.55" x1="127.185" y1="25.66" x2="160.687" y2="118.464"/>
		
			<line clip-path="url(#SVGID_2_)" fill="none" stroke="#1D1D1B" stroke-width="0.55" x1="128.856" y1="25.66" x2="162.358" y2="118.464"/>
		
			<line clip-path="url(#SVGID_2_)" fill="none" stroke="#1D1D1B" stroke-width="0.55" x1="130.528" y1="25.66" x2="164.03" y2="118.464"/>
		
			<line clip-path="url(#SVGID_2_)" fill="none" stroke="#1D1D1B" stroke-width="0.55" x1="132.2" y1="25.66" x2="165.702" y2="118.464"/>
		
			<line clip-path="url(#SVGID_2_)" fill="none" stroke="#1D1D1B" stroke-width="0.55" x1="133.872" y1="25.66" x2="167.374" y2="118.464"/>
		
			<line clip-path="url(#SVGID_2_)" fill="none" stroke="#1D1D1B" stroke-width="0.55" x1="135.544" y1="25.66" x2="169.046" y2="118.464"/>
	</g>
	<g>
		<defs>
			<path id="SVGID_3_" d="M117.394,20.024c-3.619,0.016-7.326,0.627-11.012,1.929c-3.064,1.083-5.976,2.426-8.685,4.001
				c-4.231,2.46-7.849,4.885-10.829,8.436c0,0,3.459-1.428,5.292-2.177c4.819-1.558,10.396-2.489,15.448-2.41
				c9.072,0.141,19.986,4.535,27.296,12.379l-0.046-17.395c-5.092-2.984-10.995-4.734-17.162-4.763H117.394z"/>
		</defs>
		<clipPath id="SVGID_4_">
			<use xlink:href="#SVGID_3_"  overflow="visible"/>
		</clipPath>
		
			<line clip-path="url(#SVGID_4_)" fill="none" stroke="#1D1D1B" stroke-width="0.45" x1="117.79" y1="-17.979" x2="53.968" y2="92.618"/>
		
			<line clip-path="url(#SVGID_4_)" fill="none" stroke="#1D1D1B" stroke-width="0.45" x1="119.487" y1="-17.979" x2="55.666" y2="92.616"/>
		
			<line clip-path="url(#SVGID_4_)" fill="none" stroke="#1D1D1B" stroke-width="0.45" x1="121.187" y1="-17.979" x2="57.364" y2="92.618"/>
		
			<line clip-path="url(#SVGID_4_)" fill="none" stroke="#1D1D1B" stroke-width="0.45" x1="122.886" y1="-17.979" x2="59.063" y2="92.618"/>
		
			<line clip-path="url(#SVGID_4_)" fill="none" stroke="#1D1D1B" stroke-width="0.45" x1="124.584" y1="-17.979" x2="60.763" y2="92.618"/>
		
			<line clip-path="url(#SVGID_4_)" fill="none" stroke="#1D1D1B" stroke-width="0.45" x1="126.282" y1="-17.979" x2="62.462" y2="92.616"/>
		
			<line clip-path="url(#SVGID_4_)" fill="none" stroke="#1D1D1B" stroke-width="0.45" x1="127.981" y1="-17.979" x2="64.159" y2="92.616"/>
		
			<line clip-path="url(#SVGID_4_)" fill="none" stroke="#1D1D1B" stroke-width="0.45" x1="129.68" y1="-17.979" x2="65.858" y2="92.616"/>
		
			<line clip-path="url(#SVGID_4_)" fill="none" stroke="#1D1D1B" stroke-width="0.45" x1="131.378" y1="-17.98" x2="67.556" y2="92.618"/>
		
			<line clip-path="url(#SVGID_4_)" fill="none" stroke="#1D1D1B" stroke-width="0.45" x1="133.077" y1="-17.979" x2="69.255" y2="92.618"/>
		
			<line clip-path="url(#SVGID_4_)" fill="none" stroke="#1D1D1B" stroke-width="0.45" x1="134.775" y1="-17.979" x2="70.954" y2="92.618"/>
		
			<line clip-path="url(#SVGID_4_)" fill="none" stroke="#1D1D1B" stroke-width="0.45" x1="136.474" y1="-17.979" x2="72.653" y2="92.616"/>
		
			<line clip-path="url(#SVGID_4_)" fill="none" stroke="#1D1D1B" stroke-width="0.45" x1="138.173" y1="-17.979" x2="74.351" y2="92.616"/>
		
			<line clip-path="url(#SVGID_4_)" fill="none" stroke="#1D1D1B" stroke-width="0.45" x1="139.872" y1="-17.979" x2="76.05" y2="92.618"/>
		
			<line clip-path="url(#SVGID_4_)" fill="none" stroke="#1D1D1B" stroke-width="0.45" x1="141.57" y1="-17.979" x2="77.749" y2="92.616"/>
		
			<line clip-path="url(#SVGID_4_)" fill="none" stroke="#1D1D1B" stroke-width="0.45" x1="143.269" y1="-17.979" x2="79.446" y2="92.618"/>
		
			<line clip-path="url(#SVGID_4_)" fill="none" stroke="#1D1D1B" stroke-width="0.45" x1="144.968" y1="-17.979" x2="81.146" y2="92.618"/>
		
			<line clip-path="url(#SVGID_4_)" fill="none" stroke="#1D1D1B" stroke-width="0.45" x1="146.666" y1="-17.979" x2="82.845" y2="92.618"/>
		
			<line clip-path="url(#SVGID_4_)" fill="none" stroke="#1D1D1B" stroke-width="0.45" x1="148.364" y1="-17.979" x2="84.544" y2="92.616"/>
		
			<line clip-path="url(#SVGID_4_)" fill="none" stroke="#1D1D1B" stroke-width="0.45" x1="150.063" y1="-17.979" x2="86.241" y2="92.616"/>
		
			<line clip-path="url(#SVGID_4_)" fill="none" stroke="#1D1D1B" stroke-width="0.45" x1="151.761" y1="-17.979" x2="87.94" y2="92.616"/>
		
			<line clip-path="url(#SVGID_4_)" fill="none" stroke="#1D1D1B" stroke-width="0.45" x1="153.46" y1="-17.98" x2="89.638" y2="92.618"/>
		
			<line clip-path="url(#SVGID_4_)" fill="none" stroke="#1D1D1B" stroke-width="0.45" x1="155.159" y1="-17.979" x2="91.339" y2="92.618"/>
		
			<line clip-path="url(#SVGID_4_)" fill="none" stroke="#1D1D1B" stroke-width="0.45" x1="156.858" y1="-17.979" x2="93.036" y2="92.618"/>
		
			<line clip-path="url(#SVGID_4_)" fill="none" stroke="#1D1D1B" stroke-width="0.45" x1="158.556" y1="-17.979" x2="94.734" y2="92.616"/>
		
			<line clip-path="url(#SVGID_4_)" fill="none" stroke="#1D1D1B" stroke-width="0.45" x1="160.255" y1="-17.979" x2="96.433" y2="92.616"/>
		
			<line clip-path="url(#SVGID_4_)" fill="none" stroke="#1D1D1B" stroke-width="0.45" x1="161.954" y1="-17.979" x2="98.132" y2="92.618"/>
		
			<line clip-path="url(#SVGID_4_)" fill="none" stroke="#1D1D1B" stroke-width="0.45" x1="163.651" y1="-17.979" x2="99.83" y2="92.616"/>
		
			<line clip-path="url(#SVGID_4_)" fill="none" stroke="#1D1D1B" stroke-width="0.45" x1="165.351" y1="-17.979" x2="101.529" y2="92.618"/>
		
			<line clip-path="url(#SVGID_4_)" fill="none" stroke="#1D1D1B" stroke-width="0.45" x1="167.05" y1="-17.979" x2="103.228" y2="92.618"/>
		
			<line clip-path="url(#SVGID_4_)" fill="none" stroke="#1D1D1B" stroke-width="0.45" x1="168.747" y1="-17.979" x2="104.926" y2="92.618"/>
		
			<line clip-path="url(#SVGID_4_)" fill="none" stroke="#1D1D1B" stroke-width="0.45" x1="170.446" y1="-17.979" x2="106.626" y2="92.616"/>
		
			<line clip-path="url(#SVGID_4_)" fill="none" stroke="#1D1D1B" stroke-width="0.45" x1="172.146" y1="-17.979" x2="108.323" y2="92.616"/>
		
			<line clip-path="url(#SVGID_4_)" fill="none" stroke="#1D1D1B" stroke-width="0.45" x1="173.845" y1="-17.979" x2="110.022" y2="92.616"/>
		
			<line clip-path="url(#SVGID_4_)" fill="none" stroke="#1D1D1B" stroke-width="0.45" x1="175.542" y1="-17.98" x2="111.721" y2="92.618"/>
		
			<line clip-path="url(#SVGID_4_)" fill="none" stroke="#1D1D1B" stroke-width="0.45" x1="177.241" y1="-17.979" x2="113.421" y2="92.618"/>
		
			<line clip-path="url(#SVGID_4_)" fill="none" stroke="#1D1D1B" stroke-width="0.45" x1="178.94" y1="-17.979" x2="115.118" y2="92.618"/>
		
			<line clip-path="url(#SVGID_4_)" fill="none" stroke="#1D1D1B" stroke-width="0.45" x1="180.638" y1="-17.979" x2="116.817" y2="92.616"/>
		
			<line clip-path="url(#SVGID_4_)" fill="none" stroke="#1D1D1B" stroke-width="0.45" x1="182.337" y1="-17.979" x2="118.516" y2="92.616"/>
		
			<line clip-path="url(#SVGID_4_)" fill="none" stroke="#1D1D1B" stroke-width="0.45" x1="184.036" y1="-17.979" x2="120.214" y2="92.618"/>
		
			<line clip-path="url(#SVGID_4_)" fill="none" stroke="#1D1D1B" stroke-width="0.45" x1="185.733" y1="-17.979" x2="121.913" y2="92.616"/>
		
			<line clip-path="url(#SVGID_4_)" fill="none" stroke="#1D1D1B" stroke-width="0.45" x1="187.433" y1="-17.979" x2="123.612" y2="92.616"/>
		
			<line clip-path="url(#SVGID_4_)" fill="none" stroke="#1D1D1B" stroke-width="0.45" x1="189.132" y1="-17.979" x2="125.31" y2="92.618"/>
		
			<line clip-path="url(#SVGID_4_)" fill="none" stroke="#1D1D1B" stroke-width="0.45" x1="190.831" y1="-17.979" x2="127.009" y2="92.618"/>
		
			<line clip-path="url(#SVGID_4_)" fill="none" stroke="#1D1D1B" stroke-width="0.45" x1="192.528" y1="-17.979" x2="128.708" y2="92.616"/>
		
			<line clip-path="url(#SVGID_4_)" fill="none" stroke="#1D1D1B" stroke-width="0.45" x1="194.228" y1="-17.979" x2="130.405" y2="92.616"/>
		
			<line clip-path="url(#SVGID_4_)" fill="none" stroke="#1D1D1B" stroke-width="0.45" x1="195.927" y1="-17.979" x2="132.104" y2="92.616"/>
		
			<line clip-path="url(#SVGID_4_)" fill="none" stroke="#1D1D1B" stroke-width="0.45" x1="197.624" y1="-17.98" x2="133.804" y2="92.618"/>
	</g>
	<g>
		<defs>
			<path id="SVGID_5_" d="M91.452,32.497c-2.541,1.125-4.961,2.126-4.961,2.126c-5.146,6.131-8.787,15.023-7.512,24.662
				c1.843-8.362,9.621-14.832,17.984-14.832h8.164l2.699,8.354H96.964c-4.978,0-9.66,4.703-9.66,9.682
				c0,4.978,4.683,9.729,9.66,9.729h10.576l-6.119,8.305h-4.457c-4.804-0.262-8.602-1.893-11.464-3.805
				c6.942,10.486,20.781,16.955,33.874,14.455c4.934-0.943,11.109-3.088,15.545-5.951l0.016-27.42l-16.797,22.723H107.97
				l8.203-11.085c1.773-2.631,1.02-5.063,1.02-5.063l-6.467-19.923h8.729l4.629,14.349l10.599-14.349h0.258l0.002-1.893
				c-7.66-8.757-17.459-12.615-28.041-12.615c0,0-0.762-0.068-2.029-0.068C102.017,29.876,96.583,30.226,91.452,32.497"/>
		</defs>
		<clipPath id="SVGID_6_">
			<use xlink:href="#SVGID_5_"  overflow="visible"/>
		</clipPath>
		
			<line clip-path="url(#SVGID_6_)" fill="none" stroke="#1D1D1B" stroke-width="0.75" x1="78.185" y1="-20.013" x2="49.074" y2="146.569"/>
		
			<line clip-path="url(#SVGID_6_)" fill="none" stroke="#1D1D1B" stroke-width="0.75" x1="79.495" y1="-20.013" x2="50.386" y2="146.569"/>
		
			<line clip-path="url(#SVGID_6_)" fill="none" stroke="#1D1D1B" stroke-width="0.75" x1="80.808" y1="-20.014" x2="51.697" y2="146.569"/>
		
			<line clip-path="url(#SVGID_6_)" fill="none" stroke="#1D1D1B" stroke-width="0.75" x1="82.118" y1="-20.014" x2="53.009" y2="146.569"/>
		
			<line clip-path="url(#SVGID_6_)" fill="none" stroke="#1D1D1B" stroke-width="0.75" x1="83.431" y1="-20.014" x2="54.32" y2="146.569"/>
		
			<line clip-path="url(#SVGID_6_)" fill="none" stroke="#1D1D1B" stroke-width="0.75" x1="84.742" y1="-20.013" x2="55.632" y2="146.569"/>
		
			<line clip-path="url(#SVGID_6_)" fill="none" stroke="#1D1D1B" stroke-width="0.75" x1="86.054" y1="-20.013" x2="56.943" y2="146.569"/>
		
			<line clip-path="url(#SVGID_6_)" fill="none" stroke="#1D1D1B" stroke-width="0.75" x1="87.366" y1="-20.013" x2="58.255" y2="146.569"/>
		
			<line clip-path="url(#SVGID_6_)" fill="none" stroke="#1D1D1B" stroke-width="0.75" x1="88.677" y1="-20.013" x2="59.566" y2="146.571"/>
		
			<line clip-path="url(#SVGID_6_)" fill="none" stroke="#1D1D1B" stroke-width="0.75" x1="89.989" y1="-20.015" x2="60.878" y2="146.569"/>
		
			<line clip-path="url(#SVGID_6_)" fill="none" stroke="#1D1D1B" stroke-width="0.75" x1="91.3" y1="-20.014" x2="62.189" y2="146.569"/>
		
			<line clip-path="url(#SVGID_6_)" fill="none" stroke="#1D1D1B" stroke-width="0.75" x1="92.612" y1="-20.014" x2="63.501" y2="146.569"/>
		
			<line clip-path="url(#SVGID_6_)" fill="none" stroke="#1D1D1B" stroke-width="0.75" x1="93.924" y1="-20.014" x2="64.813" y2="146.569"/>
		
			<line clip-path="url(#SVGID_6_)" fill="none" stroke="#1D1D1B" stroke-width="0.75" x1="95.235" y1="-20.014" x2="66.124" y2="146.569"/>
		
			<line clip-path="url(#SVGID_6_)" fill="none" stroke="#1D1D1B" stroke-width="0.75" x1="96.547" y1="-20.014" x2="67.437" y2="146.569"/>
		
			<line clip-path="url(#SVGID_6_)" fill="none" stroke="#1D1D1B" stroke-width="0.75" x1="97.858" y1="-20.013" x2="68.749" y2="146.569"/>
		
			<line clip-path="url(#SVGID_6_)" fill="none" stroke="#1D1D1B" stroke-width="0.75" x1="99.17" y1="-20.014" x2="70.06" y2="146.569"/>
		
			<line clip-path="url(#SVGID_6_)" fill="none" stroke="#1D1D1B" stroke-width="0.75" x1="100.481" y1="-20.014" x2="71.372" y2="146.569"/>
		
			<line clip-path="url(#SVGID_6_)" fill="none" stroke="#1D1D1B" stroke-width="0.75" x1="101.794" y1="-20.014" x2="72.684" y2="146.569"/>
		
			<line clip-path="url(#SVGID_6_)" fill="none" stroke="#1D1D1B" stroke-width="0.75" x1="103.105" y1="-20.014" x2="73.995" y2="146.569"/>
		
			<line clip-path="url(#SVGID_6_)" fill="none" stroke="#1D1D1B" stroke-width="0.75" x1="104.417" y1="-20.013" x2="75.307" y2="146.569"/>
		
			<line clip-path="url(#SVGID_6_)" fill="none" stroke="#1D1D1B" stroke-width="0.75" x1="105.729" y1="-20.013" x2="76.618" y2="146.569"/>
		
			<line clip-path="url(#SVGID_6_)" fill="none" stroke="#1D1D1B" stroke-width="0.75" x1="107.04" y1="-20.014" x2="77.929" y2="146.569"/>
		
			<line clip-path="url(#SVGID_6_)" fill="none" stroke="#1D1D1B" stroke-width="0.75" x1="108.352" y1="-20.014" x2="79.241" y2="146.569"/>
		
			<line clip-path="url(#SVGID_6_)" fill="none" stroke="#1D1D1B" stroke-width="0.75" x1="109.663" y1="-20.014" x2="80.552" y2="146.569"/>
		
			<line clip-path="url(#SVGID_6_)" fill="none" stroke="#1D1D1B" stroke-width="0.75" x1="110.976" y1="-20.013" x2="81.864" y2="146.569"/>
		
			<line clip-path="url(#SVGID_6_)" fill="none" stroke="#1D1D1B" stroke-width="0.75" x1="112.286" y1="-20.013" x2="83.176" y2="146.569"/>
		
			<line clip-path="url(#SVGID_6_)" fill="none" stroke="#1D1D1B" stroke-width="0.75" x1="113.599" y1="-20.013" x2="84.487" y2="146.569"/>
		
			<line clip-path="url(#SVGID_6_)" fill="none" stroke="#1D1D1B" stroke-width="0.75" x1="114.909" y1="-20.013" x2="85.798" y2="146.569"/>
		
			<line clip-path="url(#SVGID_6_)" fill="none" stroke="#1D1D1B" stroke-width="0.75" x1="116.222" y1="-20.015" x2="87.11" y2="146.569"/>
		
			<line clip-path="url(#SVGID_6_)" fill="none" stroke="#1D1D1B" stroke-width="0.75" x1="117.532" y1="-20.014" x2="88.422" y2="146.569"/>
		
			<line clip-path="url(#SVGID_6_)" fill="none" stroke="#1D1D1B" stroke-width="0.75" x1="118.845" y1="-20.014" x2="89.734" y2="146.569"/>
		
			<line clip-path="url(#SVGID_6_)" fill="none" stroke="#1D1D1B" stroke-width="0.75" x1="120.156" y1="-20.014" x2="91.046" y2="146.569"/>
		
			<line clip-path="url(#SVGID_6_)" fill="none" stroke="#1D1D1B" stroke-width="0.75" x1="121.468" y1="-20.014" x2="92.358" y2="146.569"/>
		
			<line clip-path="url(#SVGID_6_)" fill="none" stroke="#1D1D1B" stroke-width="0.75" x1="122.78" y1="-20.014" x2="93.669" y2="146.569"/>
		
			<line clip-path="url(#SVGID_6_)" fill="none" stroke="#1D1D1B" stroke-width="0.75" x1="124.091" y1="-20.013" x2="94.981" y2="146.569"/>
		
			<line clip-path="url(#SVGID_6_)" fill="none" stroke="#1D1D1B" stroke-width="0.75" x1="125.403" y1="-20.014" x2="96.292" y2="146.569"/>
		
			<line clip-path="url(#SVGID_6_)" fill="none" stroke="#1D1D1B" stroke-width="0.75" x1="126.714" y1="-20.014" x2="97.604" y2="146.569"/>
		
			<line clip-path="url(#SVGID_6_)" fill="none" stroke="#1D1D1B" stroke-width="0.75" x1="128.026" y1="-20.014" x2="98.915" y2="146.569"/>
		
			<line clip-path="url(#SVGID_6_)" fill="none" stroke="#1D1D1B" stroke-width="0.75" x1="129.338" y1="-20.014" x2="100.228" y2="146.569"/>
		
			<line clip-path="url(#SVGID_6_)" fill="none" stroke="#1D1D1B" stroke-width="0.75" x1="130.649" y1="-20.013" x2="101.538" y2="146.569"/>
		
			<line clip-path="url(#SVGID_6_)" fill="none" stroke="#1D1D1B" stroke-width="0.75" x1="131.961" y1="-20.013" x2="102.851" y2="146.569"/>
		
			<line clip-path="url(#SVGID_6_)" fill="none" stroke="#1D1D1B" stroke-width="0.75" x1="133.272" y1="-20.013" x2="104.161" y2="146.569"/>
		
			<line clip-path="url(#SVGID_6_)" fill="none" stroke="#1D1D1B" stroke-width="0.75" x1="134.584" y1="-20.014" x2="105.474" y2="146.569"/>
		
			<line clip-path="url(#SVGID_6_)" fill="none" stroke="#1D1D1B" stroke-width="0.75" x1="135.896" y1="-20.014" x2="106.785" y2="146.569"/>
		
			<line clip-path="url(#SVGID_6_)" fill="none" stroke="#1D1D1B" stroke-width="0.75" x1="137.207" y1="-20.013" x2="108.097" y2="146.569"/>
		
			<line clip-path="url(#SVGID_6_)" fill="none" stroke="#1D1D1B" stroke-width="0.75" x1="138.519" y1="-20.013" x2="109.409" y2="146.569"/>
		
			<line clip-path="url(#SVGID_6_)" fill="none" stroke="#1D1D1B" stroke-width="0.75" x1="139.831" y1="-20.013" x2="110.721" y2="146.569"/>
		
			<line clip-path="url(#SVGID_6_)" fill="none" stroke="#1D1D1B" stroke-width="0.75" x1="141.142" y1="-20.014" x2="112.032" y2="146.569"/>
		
			<line clip-path="url(#SVGID_6_)" fill="none" stroke="#1D1D1B" stroke-width="0.75" x1="142.454" y1="-20.015" x2="113.343" y2="146.569"/>
		
			<line clip-path="url(#SVGID_6_)" fill="none" stroke="#1D1D1B" stroke-width="0.75" x1="143.765" y1="-20.014" x2="114.655" y2="146.569"/>
		
			<line clip-path="url(#SVGID_6_)" fill="none" stroke="#1D1D1B" stroke-width="0.75" x1="145.077" y1="-20.014" x2="115.968" y2="146.569"/>
		
			<line clip-path="url(#SVGID_6_)" fill="none" stroke="#1D1D1B" stroke-width="0.75" x1="146.389" y1="-20.014" x2="117.278" y2="146.569"/>
		
			<line clip-path="url(#SVGID_6_)" fill="none" stroke="#1D1D1B" stroke-width="0.75" x1="147.7" y1="-20.014" x2="118.59" y2="146.569"/>
		
			<line clip-path="url(#SVGID_6_)" fill="none" stroke="#1D1D1B" stroke-width="0.75" x1="149.013" y1="-20.014" x2="119.901" y2="146.569"/>
		
			<line clip-path="url(#SVGID_6_)" fill="none" stroke="#1D1D1B" stroke-width="0.75" x1="150.323" y1="-20.013" x2="121.213" y2="146.569"/>
		
			<line clip-path="url(#SVGID_6_)" fill="none" stroke="#1D1D1B" stroke-width="0.75" x1="151.636" y1="-20.014" x2="122.524" y2="146.569"/>
		
			<line clip-path="url(#SVGID_6_)" fill="none" stroke="#1D1D1B" stroke-width="0.75" x1="152.946" y1="-20.014" x2="123.836" y2="146.569"/>
		
			<line clip-path="url(#SVGID_6_)" fill="none" stroke="#1D1D1B" stroke-width="0.75" x1="154.259" y1="-20.014" x2="125.147" y2="146.569"/>
		
			<line clip-path="url(#SVGID_6_)" fill="none" stroke="#1D1D1B" stroke-width="0.75" x1="155.569" y1="-20.014" x2="126.46" y2="146.569"/>
		
			<line clip-path="url(#SVGID_6_)" fill="none" stroke="#1D1D1B" stroke-width="0.75" x1="156.882" y1="-20.013" x2="127.771" y2="146.569"/>
	</g>
	<g>
		<path fill="#575756" d="M151.974,64.396V50.582h2.682v13.644c0,5.125,2.748,8.01,7.262,8.01c4.377,0,7.16-2.647,7.16-7.84V50.582
			h2.684v13.61c0,6.922-3.973,10.52-9.91,10.52C155.978,74.712,151.974,71.114,151.974,64.396"/>
		<rect x="143.907" y="50.582" fill="#575756" width="2.682" height="23.757"/>
		<polygon fill="#575756" points="175.554,50.582 175.554,53.061 183.53,53.061 183.53,74.34 186.245,74.34 186.245,53.061 
			194.22,53.061 194.22,50.582 		"/>
		<path fill="#868686" d="M180.005,90.722l-1.904,2.574h1.127l6.189-8.377h-1.115l-3.146,4.131l-1.359-4.131h-1.055l1.5,4.627
			C180.241,89.546,180.417,90.112,180.005,90.722"/>
		<path fill="#868686" d="M173.528,93.396c1.408,0,2.578-0.584,3.352-1.277V88.79h-3.447v0.846h2.543v2.076
			c-0.574,0.467-1.457,0.838-2.412,0.838c-2.029,0-3.307-1.48-3.307-3.475v-0.023c0-1.861,1.326-3.426,3.176-3.426
			c1.182,0,1.898,0.395,2.543,0.956l0.605-0.718c-0.834-0.703-1.705-1.107-3.111-1.107c-2.508,0-4.189,2.027-4.189,4.318v0.025
			C169.28,91.487,170.901,93.396,173.528,93.396 M161.964,89.161v-3.391h2.578c1.35,0,2.139,0.62,2.139,1.646v0.023
			c0,1.074-0.896,1.721-2.15,1.721H161.964z M161.024,93.251h0.939v-3.246h2.387l2.424,3.246h1.156l-2.564-3.412
			c1.314-0.238,2.266-1.049,2.266-2.434v-0.023c0-0.656-0.238-1.242-0.643-1.648c-0.525-0.523-1.348-0.834-2.375-0.834h-3.59V93.251
			z M153.028,93.251h6.096v-0.857h-5.154V89.47h4.559V88.61h-4.559v-2.853h5.096v-0.858h-6.037V93.251z M148.039,93.396
			c1.517,0,2.47-0.584,3.341-1.467l-0.619-0.609c-0.801,0.764-1.552,1.207-2.697,1.207c-1.838,0-3.234-1.516-3.234-3.451v-0.023
			c0-1.921,1.385-3.426,3.234-3.426c1.133,0,1.92,0.479,2.625,1.146l0.643-0.691c-0.834-0.788-1.741-1.324-3.256-1.324
			c-2.458,0-4.223,1.956-4.223,4.318v0.025C143.853,91.499,145.628,93.396,148.039,93.396"/>
		<path fill="#868686" d="M245.497,93.241h6.07v-0.854h-5.135v-2.914h4.541V88.62h-4.541v-2.842h5.074v-0.854h-6.01V93.241z
			 M240.743,93.36c1.652,0,2.838-0.928,2.838-2.352v-0.025c0-1.271-0.854-1.947-2.709-2.352c-1.83-0.393-2.258-0.834-2.258-1.617
			v-0.023c0-0.748,0.689-1.344,1.771-1.344c0.855,0,1.629,0.273,2.4,0.904l0.547-0.725c-0.844-0.678-1.711-1.021-2.924-1.021
			c-1.582,0-2.732,0.961-2.732,2.269v0.023c0,1.366,0.879,1.985,2.793,2.401c1.746,0.367,2.162,0.807,2.162,1.58v0.023
			c0,0.82-0.736,1.414-1.854,1.414c-1.152,0-1.986-0.391-2.852-1.176l-0.582,0.689C238.341,92.921,239.423,93.36,240.743,93.36
			 M234.517,93.241h0.936v-8.316h-0.936V93.241z M228.218,92.517c-1.902,0-3.279-1.545-3.279-3.434v-0.025
			c0-1.889,1.354-3.41,3.256-3.41s3.281,1.545,3.281,3.436v0.021C231.476,90.997,230.12,92.517,228.218,92.517 M228.194,93.384
			c2.531,0,4.254-2.008,4.254-4.301v-0.025c0-2.293-1.699-4.275-4.23-4.275s-4.254,2.006-4.254,4.301v0.021
			C223.964,91.401,225.661,93.384,228.194,93.384 M219.403,93.241h0.949V85.79h2.791v-0.865h-6.533v0.865h2.793V93.241z
			 M207.817,93.241h0.912v-6.82l5.373,6.82h0.748v-8.316h-0.914v6.666l-5.242-6.666h-0.877V93.241z M201.601,92.517
			c-1.9,0-3.279-1.545-3.279-3.434v-0.025c0-1.889,1.355-3.41,3.256-3.41c1.902,0,3.281,1.545,3.281,3.436v0.021
			C204.858,90.997,203.503,92.517,201.601,92.517 M201.577,93.384c2.531,0,4.254-2.008,4.254-4.301v-0.025
			c0-2.293-1.697-4.275-4.23-4.275c-2.531,0-4.252,2.006-4.252,4.301v0.021C197.349,91.401,199.046,93.384,201.577,93.384
			 M190.716,89.452V85.79h2.104c1.344,0,2.236,0.619,2.236,1.808v0.022c0,1.096-0.904,1.832-2.283,1.832H190.716z M189.778,93.241
			h0.938v-2.936h2.02c1.773,0,3.268-0.926,3.268-2.721v-0.023c0-1.641-1.234-2.637-3.111-2.637h-3.113V93.241z M184.526,90.151
			h3.301v-0.963h-3.301V90.151z"/>
	</g>
</g>
</svg>
