<?xml version="1.0" encoding="utf-8"?>
<!-- Generator: Adobe Illustrator 16.0.0, SVG Export Plug-In . SVG Version: 6.00 Build 0)  -->
<!DOCTYPE svg PUBLIC "-//W3C//DTD SVG 1.1//EN" "http://www.w3.org/Graphics/SVG/1.1/DTD/svg11.dtd">
<svg version="1.1" id="Calque_1" xmlns="http://www.w3.org/2000/svg" xmlns:xlink="http://www.w3.org/1999/xlink" x="0px" y="0px"
	 width="253.5px" height="125px" viewBox="32.5 0 253.5 125" enable-background="new 32.5 0 253.5 125" xml:space="preserve">
<g>
	<g>
		<path fill="#E94B93" d="M135.003,84.532c-4.426,2.852-9.341,4.818-14.263,5.76c-18.467,3.527-36.789-7.566-40.771-27.436
			c-2.215-11.053,0.775-20.521,6.907-27.825c-5.079,2.655-9.594,6.289-13.027,10.537c-7.246,8.968-9.676,20.67-2.427,31.673
			c0.789,1.196,1.601,2.372,2.427,3.528c2.805,3.91,5.822,7.557,9.021,10.77c8.022,8.064,17.159,13.41,26.786,13.41
			c3.164,0,6.377-0.578,9.623-1.826c5.971-2.291,11.384-6.414,15.654-11.584"/>
		<path fill="#FFDB00" d="M134.977,24.816c-8.16-4.782-18.397-6.396-28.476-2.834c-3.063,1.083-5.976,2.426-8.685,4.001
			c-4.233,2.46-7.959,5.497-10.939,9.047c1.465-0.765,2.977-1.452,4.523-2.047c4.836-1.857,9.924-2.807,14.978-2.807
			c10.567,0,20.988,4.156,28.646,12.883"/>
		<path fill="#E1162F" d="M135.061,43.103c-7.66-8.757-18.099-12.928-28.683-12.928c-5.055,0-10.142,0.951-14.978,2.809
			c-1.547,0.594-3.058,1.281-4.523,2.047c-6.132,7.305-9.121,16.772-6.906,27.826c3.979,19.867,22.303,30.964,40.771,27.435
			c4.934-0.943,9.862-2.92,14.297-5.781"/>
	</g>
	<g>
		<defs>
			<path id="SVGID_1_" d="M91.401,32.983c-1.548,0.594-3.06,1.282-4.526,2.047c-6.13,7.305-9.119,16.771-6.904,27.826
				c3.979,19.87,22.302,30.963,40.77,27.436c4.934-0.943,9.862-2.919,14.296-5.782l0.024-41.407
				c-7.659-8.757-18.1-12.928-28.682-12.928C101.323,30.174,96.235,31.126,91.401,32.983"/>
		</defs>
		<clipPath id="SVGID_2_">
			<use xlink:href="#SVGID_1_"  overflow="visible"/>
		</clipPath>
		<path clip-path="url(#SVGID_2_)" fill="#FFFFFF" d="M135.084,44.48h-0.283l-10.598,14.349l-4.63-14.349h-8.729l6.468,19.923
			c0,0,0.753,2.435-1.021,5.064l-8.201,11.085h10.166l16.812-22.744"/>
		<path clip-path="url(#SVGID_2_)" fill="#FFFFFF" d="M79.049,62.516c0,9.956,8.08,18.036,18.035,18.036h4.455l6.119-8.305H97.084
			c-4.979,0-9.662-4.754-9.662-9.731c0-4.978,4.684-9.681,9.662-9.681h10.861l-2.699-8.354h-8.162
			C87.129,44.481,79.049,52.56,79.049,62.516"/>
	</g>
	<g>
		<rect x="134.815" y="20.053" fill="#3E4543" width="0.425" height="84.864"/>
		<path fill="#616764" d="M151.857,64.437V50.624h2.682v13.645c0,5.125,2.748,8.009,7.262,8.009c4.377,0,7.16-2.647,7.16-7.841
			V50.624h2.682v13.61c0,6.924-3.971,10.521-9.91,10.521C155.861,74.755,151.857,71.157,151.857,64.437"/>
		<rect x="143.791" y="50.624" fill="#616764" width="2.682" height="23.758"/>
		<polygon fill="#616764" points="175.438,50.624 175.438,53.102 183.412,53.102 183.412,74.382 186.127,74.382 186.127,53.102 
			194.104,53.102 194.104,50.624 		"/>
		<path fill="#868A88" d="M179.889,90.765l-1.904,2.574h1.125l6.191-8.377h-1.115l-3.146,4.129l-1.359-4.129h-1.057l1.502,4.627
			C180.125,89.589,180.301,90.153,179.889,90.765"/>
		<path fill="#868A88" d="M173.41,93.437c1.408,0,2.578-0.584,3.354-1.275v-3.328h-3.447v0.846h2.541v2.076
			c-0.572,0.467-1.455,0.836-2.41,0.836c-2.029,0-3.307-1.48-3.307-3.473v-0.023c0-1.863,1.324-3.426,3.176-3.426
			c1.182,0,1.898,0.395,2.541,0.955l0.607-0.717c-0.834-0.703-1.705-1.108-3.113-1.108c-2.506,0-4.188,2.028-4.188,4.319v0.023
			C169.164,91.528,170.785,93.437,173.41,93.437 M161.848,89.202v-3.391h2.578c1.35,0,2.137,0.621,2.137,1.647v0.024
			c0,1.074-0.895,1.719-2.148,1.719H161.848z M160.906,93.292h0.941v-3.244h2.387l2.424,3.244h1.156l-2.564-3.412
			c1.313-0.236,2.266-1.049,2.266-2.432v-0.024c0-0.657-0.238-1.242-0.643-1.647c-0.525-0.524-1.35-0.834-2.375-0.834h-3.592V93.292
			z M152.912,93.292h6.096v-0.855h-5.154v-2.926h4.558v-0.857h-4.558V85.8h5.095v-0.857h-6.036V93.292z M147.923,93.437
			c1.517,0,2.47-0.584,3.341-1.467l-0.62-0.607c-0.8,0.764-1.552,1.205-2.696,1.205c-1.838,0-3.234-1.516-3.234-3.449v-0.023
			c0-1.922,1.384-3.426,3.234-3.426c1.133,0,1.92,0.477,2.625,1.145l0.644-0.69c-0.835-0.788-1.742-1.324-3.257-1.324
			c-2.458,0-4.223,1.956-4.223,4.319v0.023C143.736,91.54,145.512,93.437,147.923,93.437"/>
		<path fill="#868A88" d="M245.379,93.284h6.07v-0.855h-5.133v-2.912h4.539v-0.854h-4.539v-2.842h5.074v-0.855h-6.012V93.284z
			 M240.625,93.403c1.652,0,2.84-0.928,2.84-2.354v-0.023c0-1.273-0.854-1.949-2.709-2.354c-1.83-0.393-2.258-0.832-2.258-1.616
			v-0.024c0-0.748,0.689-1.342,1.771-1.342c0.855,0,1.629,0.272,2.4,0.902l0.547-0.725c-0.844-0.676-1.711-1.021-2.924-1.021
			c-1.582,0-2.732,0.962-2.732,2.269v0.023c0,1.367,0.877,1.984,2.791,2.4c1.748,0.369,2.164,0.809,2.164,1.582v0.023
			c0,0.818-0.736,1.414-1.854,1.414c-1.154,0-1.986-0.393-2.852-1.176l-0.582,0.689C238.225,92.962,239.307,93.403,240.625,93.403
			 M234.4,93.284h0.936v-8.317H234.4V93.284z M228.102,92.56c-1.902,0-3.281-1.545-3.281-3.436v-0.023c0-1.89,1.355-3.41,3.258-3.41
			c1.9,0,3.279,1.545,3.279,3.434v0.025C231.357,91.038,230.004,92.56,228.102,92.56 M228.078,93.427
			c2.531,0,4.252-2.01,4.252-4.303v-0.023c0-2.294-1.697-4.277-4.229-4.277s-4.254,2.008-4.254,4.301v0.025
			C223.848,91.442,225.545,93.427,228.078,93.427 M219.285,93.284h0.949v-7.452h2.793v-0.866h-6.535v0.866h2.793V93.284z
			 M207.699,93.284h0.914v-6.82l5.373,6.82h0.748v-8.318h-0.914v6.666l-5.242-6.666h-0.879V93.284z M201.484,92.56
			c-1.902,0-3.281-1.545-3.281-3.436v-0.023c0-1.89,1.355-3.41,3.258-3.41c1.9,0,3.279,1.545,3.279,3.434v0.025
			C204.74,91.038,203.387,92.56,201.484,92.56 M201.461,93.427c2.531,0,4.252-2.01,4.252-4.303v-0.023
			c0-2.294-1.697-4.277-4.229-4.277s-4.252,2.008-4.252,4.301v0.025C197.232,91.442,198.928,93.427,201.461,93.427 M190.598,89.495
			v-3.663h2.105c1.342,0,2.234,0.618,2.234,1.808v0.023c0,1.094-0.902,1.832-2.283,1.832H190.598z M189.662,93.284h0.936v-2.936
			h2.021c1.771,0,3.268-0.928,3.268-2.721v-0.025c0-1.64-1.234-2.637-3.111-2.637h-3.113V93.284z M184.41,90.194h3.301v-0.963
			h-3.301V90.194z"/>
	</g>
</g>
</svg>
