<?xml version="1.0" encoding="utf-8"?>
<!-- Generator: Adobe Illustrator 16.0.0, SVG Export Plug-In . SVG Version: 6.00 Build 0)  -->
<!DOCTYPE svg PUBLIC "-//W3C//DTD SVG 1.1//EN" "http://www.w3.org/Graphics/SVG/1.1/DTD/svg11.dtd">
<svg version="1.1" id="Calque_1" xmlns="http://www.w3.org/2000/svg" xmlns:xlink="http://www.w3.org/1999/xlink" x="0px" y="0px"
	 width="253.5px" height="125px" viewBox="32.5 0 253.5 125" enable-background="new 32.5 0 253.5 125" xml:space="preserve">
<g>
	<rect x="134.765" y="20.052" fill="#FFFFFF" width="0.426" height="84.865"/>
	<g>
		<path fill="#FFFFFF" d="M134.884,91.54c-4.271,5.168-9.685,9.291-15.654,11.584c-3.247,1.248-6.46,1.824-9.624,1.824
			c-9.626,0-18.765-5.346-26.786-13.408c-3.198-3.213-6.216-6.861-9.02-10.771c-0.828-1.156-1.639-2.331-2.428-3.528
			c-7.248-11.003-4.818-22.705,2.428-31.672c3.434-4.248,7.885-7.65,12.635-10.65c0,0-11.332,10.167-8,27.939
			c3.736,19.916,24.085,32.478,42.335,28.896c4.915-0.967,9.823-2.9,14.25-5.752"/>
		<path fill="#FFFFFF" d="M134.927,24.816c-8.16-4.782-18.398-6.396-28.477-2.834c-3.063,1.083-5.976,2.426-8.685,4.001
			c-4.233,2.46-7.849,4.885-10.83,8.436c0,0,3.167-2.167,5-2.917c4.794-1.961,9.529-2.75,14.583-2.75
			c10.567,0,20.797,4.022,28.454,12.75"/>
		<path fill="#FFFFFF" d="M91.519,33.335c7.41-3.28,14.875-2.833,14.875-2.833c10.584,0,20.957,4.326,28.617,13.083v0.896h-0.261
			L124.151,58.83l-4.629-14.349h-8.729l6.467,19.923c0,0,0.754,2.435-1.021,5.063l-8.201,11.086h10.167l16.796-22.724l-0.017,26.173
			c-4.434,2.862-9.532,5.057-14.467,6c-13.092,2.5-25.735-2.49-33.484-12.482c2.863,1.912,6.3,3.031,9.999,3.031h4.456l6.119-8.305
			H97.033c-4.978,0-9.662-4.754-9.662-9.731c0-4.979,4.685-9.681,9.662-9.681h10.862l-2.699-8.354h-8.163
			c-8.363,0-15.396,5.704-17.435,13.43c-0.511-8.533,2.44-15.527,7.588-21.659C87.187,36.252,88.978,34.46,91.519,33.335"/>
		<path fill="#FFFFFF" d="M151.905,64.331V50.518h2.682v13.645c0,5.125,2.748,8.008,7.262,8.008c4.377,0,7.162-2.646,7.162-7.84
			V50.518h2.68v13.61c0,6.924-3.971,10.521-9.908,10.521C155.909,74.648,151.905,71.052,151.905,64.331"/>
		<rect x="143.839" y="50.518" fill="#FFFFFF" width="2.682" height="23.759"/>
		<polygon fill="#FFFFFF" points="175.485,50.518 175.485,52.996 183.462,52.996 183.462,74.276 186.177,74.276 186.177,52.996 
			194.153,52.996 194.153,50.518 		"/>
		<path fill="#FFFFFF" d="M179.937,90.659l-1.904,2.572h1.127l6.191-8.376h-1.117l-3.146,4.13l-1.359-4.13h-1.055l1.5,4.628
			C180.173,89.483,180.349,90.048,179.937,90.659"/>
		<path fill="#FFFFFF" d="M173.46,93.331c1.408,0,2.576-0.584,3.352-1.275v-3.328h-3.447v0.846h2.543v2.076
			c-0.574,0.467-1.457,0.836-2.412,0.836c-2.027,0-3.305-1.48-3.305-3.473v-0.023c0-1.863,1.324-3.427,3.174-3.427
			c1.182,0,1.898,0.394,2.543,0.956l0.607-0.717c-0.834-0.703-1.707-1.108-3.115-1.108c-2.506,0-4.188,2.026-4.188,4.319v0.023
			C169.212,91.423,170.833,93.331,173.46,93.331 M161.896,89.097v-3.391h2.58c1.348,0,2.137,0.621,2.137,1.647v0.024
			c0,1.074-0.896,1.719-2.15,1.719H161.896z M160.954,93.187h0.941v-3.244h2.387l2.424,3.244h1.156l-2.563-3.412
			c1.313-0.236,2.266-1.049,2.266-2.434v-0.023c0-0.656-0.24-1.241-0.645-1.646c-0.525-0.525-1.348-0.834-2.373-0.834h-3.594V93.187
			z M152.961,93.187h6.095v-0.855h-5.153v-2.926h4.558v-0.857h-4.558v-2.854h5.095v-0.857h-6.036V93.187z M147.972,93.331
			c1.516,0,2.469-0.584,3.34-1.467l-0.619-0.607c-0.801,0.762-1.553,1.205-2.697,1.205c-1.838,0-3.234-1.516-3.234-3.449v-0.023
			c0-1.922,1.385-3.427,3.234-3.427c1.133,0,1.921,0.478,2.625,1.146l0.645-0.691c-0.836-0.787-1.742-1.323-3.258-1.323
			c-2.457,0-4.223,1.956-4.223,4.319v0.023C143.784,91.435,145.56,93.331,147.972,93.331"/>
		<path fill="#FFFFFF" d="M245.429,93.177h6.07v-0.854h-5.133v-2.912h4.539v-0.854h-4.539v-2.843h5.074V84.86h-6.012V93.177z
			 M240.675,93.296c1.652,0,2.84-0.926,2.84-2.352v-0.025c0-1.27-0.855-1.947-2.709-2.352c-1.832-0.393-2.26-0.832-2.26-1.617
			v-0.023c0-0.749,0.691-1.343,1.771-1.343c0.855,0,1.629,0.272,2.4,0.903l0.547-0.725c-0.842-0.677-1.711-1.021-2.924-1.021
			c-1.58,0-2.73,0.961-2.73,2.27v0.023c0,1.367,0.877,1.984,2.791,2.4c1.746,0.369,2.162,0.809,2.162,1.582v0.021
			c0,0.822-0.736,1.416-1.854,1.416c-1.152,0-1.984-0.393-2.852-1.178l-0.582,0.689C238.274,92.856,239.354,93.296,240.675,93.296
			 M234.448,93.177h0.938V84.86h-0.938V93.177z M228.149,92.454c-1.902,0-3.279-1.545-3.279-3.436v-0.023
			c0-1.891,1.354-3.411,3.256-3.411s3.281,1.545,3.281,3.435v0.023C231.407,90.933,230.052,92.454,228.149,92.454 M228.126,93.319
			c2.531,0,4.254-2.006,4.254-4.301v-0.023c0-2.293-1.697-4.277-4.23-4.277c-2.531,0-4.252,2.008-4.252,4.301v0.023
			C223.897,91.335,225.595,93.319,228.126,93.319 M219.335,93.177h0.949v-7.449h2.793V84.86h-6.535v0.867h2.793V93.177z
			 M207.749,93.177h0.914v-6.818l5.371,6.818h0.748V84.86h-0.914v6.666l-5.242-6.666h-0.877V93.177z M201.532,92.454
			c-1.9,0-3.279-1.545-3.279-3.436v-0.023c0-1.891,1.355-3.411,3.258-3.411c1.9,0,3.279,1.545,3.279,3.435v0.023
			C204.79,90.933,203.437,92.454,201.532,92.454 M201.511,93.319c2.529,0,4.252-2.006,4.252-4.301v-0.023
			c0-2.293-1.697-4.277-4.23-4.277c-2.531,0-4.252,2.008-4.252,4.301v0.023C197.28,91.335,198.978,93.319,201.511,93.319
			 M190.647,89.388v-3.66h2.104c1.344,0,2.236,0.617,2.236,1.807v0.023c0,1.094-0.904,1.83-2.283,1.83H190.647z M189.71,93.177
			h0.938v-2.934h2.02c1.773,0,3.27-0.926,3.27-2.721v-0.024c0-1.642-1.236-2.638-3.113-2.638h-3.113V93.177z M184.458,90.087h3.303
			v-0.961h-3.303V90.087z"/>
	</g>
</g>
</svg>
